<svg width="370" height="370" viewBox="0 0 370 370" fill="none" xmlns="http://www.w3.org/2000/svg">
<mask id="mask0_1_3" style="mask-type:luminance" maskUnits="userSpaceOnUse" x="0" y="0" width="370" height="425">
<path d="M370 0H0V425H370V0Z" fill="white"/>
</mask>
<g mask="url(#mask0_1_3)">
<path d="M205.234 265.987C208.778 265.529 216.934 264.881 216.797 265.987C216.959 264.866 214.448 263.869 219.688 263.096C219.588 263.869 225.39 263.222 228.359 263.096C225.864 262.606 223.584 263.364 216.797 263.096C210.559 264.675 196.658 261.88 190.781 263.096C194.973 263.838 199.995 266.145 205.234 265.987Z" fill="white"/>
<path d="M234.141 268.878H228.359H222.578C223.745 268.712 226.052 268.968 228.359 268.878C229.874 268.691 232.627 268.682 234.141 268.878Z" fill="white"/>
<path d="M265.938 263.096C265.102 263.837 271.68 262.655 271.719 263.096C271.449 262.569 274.699 260.806 277.5 260.205C280.369 259.582 280.52 258.215 283.281 257.313H286.172C284.99 257.528 282.241 256.797 280.391 257.313C278.541 257.829 276.922 259.646 274.609 260.205C272.297 260.763 271.398 262.644 268.828 263.096H263.047H260.156C262.392 262.849 263.792 263.45 265.938 263.096Z" fill="#EFA142"/>
<path d="M277.5 263.094C278.574 262.355 279.331 260.979 280.391 260.203C277.642 261.792 271.244 264.72 277.5 263.094Z" fill="white"/>
<path d="M268.828 260.205C263.209 261.881 271.557 258.221 265.938 260.205C267.814 259.386 270.723 260.064 268.828 260.205Z" fill="white"/>
<path d="M300.625 248.639C299.495 249.497 298.914 250.744 297.734 251.53C296.555 252.316 296.075 253.752 294.844 254.421C292.358 255.876 288.695 256.133 286.172 257.312C287.241 256.905 287.994 257.749 289.062 257.312L291.953 254.421H294.844L297.734 251.53C299.064 250.511 299.356 249.759 300.625 248.639Z" fill="#EFA142"/>
<path d="M300.625 248.639C298.703 249.802 295.063 250.384 297.734 248.639C300.191 247.635 304.319 247.369 306.406 245.748C308.366 244.332 309.762 241.483 312.188 239.966L309.297 242.857L306.406 245.748C306.947 245.875 310.187 241.773 312.188 239.966C314.188 238.158 317.596 236.455 317.969 237.075C320.29 234.167 318.937 236.481 317.969 237.075C317 237.669 314.951 237.711 317.969 234.184C312.766 239.724 307.424 245.129 300.625 248.639C301.469 248.307 302.726 246.19 303.516 245.748C304.29 245.331 305.091 246.507 306.406 245.748C304.238 247.265 300.547 247.021 297.734 248.639C296.33 249.448 296.263 250.734 294.844 251.531C293.424 252.327 290.482 253.764 289.062 254.422C292.635 253.941 295.789 250.788 300.625 248.639Z" fill="#EFA142"/>
<path d="M320.859 234.184C322.86 231.727 325.01 228.288 326.641 225.511C328.205 222.784 329.612 220.633 329.531 219.729C328.338 221.363 327.543 223.657 326.641 225.511C326.077 226.822 324.337 227.13 323.75 228.402C323.221 229.084 324.62 230.271 323.75 231.293C322.88 232.315 320.365 232.381 320.859 231.293C321.542 230.729 319.015 235.915 320.859 234.184Z" fill="#EFA142"/>
<path d="M335.312 216.837C335.547 215.286 335.13 212.606 335.312 211.055V213.946C335.252 214.468 334.442 217.091 332.422 222.619C332.951 221.629 332.104 220.934 332.422 219.728C332.682 218.684 334.795 218.318 335.312 216.837Z" fill="#EFA142"/>
<path d="M329.531 211.054C331.028 208.147 331.916 205.707 332.422 202.381C331.67 205.444 330.656 208.146 329.531 211.054C328.421 213.853 326.863 215.984 326.641 216.837V219.728C326.273 220.58 324.16 221.639 323.75 222.619C323.339 223.598 324.137 224.594 323.75 225.51C325.091 222.838 328.245 219.737 329.531 216.837C330.817 213.936 330.517 210.558 329.531 211.054Z" fill="#EFA142"/>
<path d="M326.641 216.836C327.719 215.921 328.615 214.906 329.531 213.945C328.615 214.906 327.719 215.885 326.641 216.836Z" fill="#EFA142"/>
<path d="M341.094 196.6C340.351 199.547 339.382 202.445 338.203 205.273C338.55 204.594 337.885 203.1 338.203 202.382C338.897 200.188 340.602 198.846 341.094 196.6Z" fill="#EFA142"/>
<path d="M335.313 205.273C337.079 199.445 333.737 207.894 335.313 202.382C335.457 201.612 336.009 203.047 335.313 205.273C334.616 207.499 332.364 210.705 332.422 211.055C332.884 209.978 332.101 209.313 332.422 208.164C332.827 206.893 334.925 205.448 335.313 205.273Z" fill="#EFA142"/>
<path d="M341.094 193.707C341.094 192.193 341.183 189.377 341.094 187.924C341.004 186.471 341.235 186.471 341.094 185.033C341.235 186.547 341.056 186.486 341.094 187.924C341.131 189.362 341.094 192.238 341.094 193.707Z" fill="#EFA142"/>
<path d="M341.094 173.47H338.203C337.414 169.713 337.073 165.32 335.312 161.906C333.587 158.413 330.791 155.519 329.531 153.232C329.771 153.157 329.719 153.873 329.531 153.232C329.291 153.308 330.696 153.61 332.422 156.123C333.217 156.714 332.321 159.555 332.422 159.015C333.682 161.327 334.671 160.297 335.312 161.906C336.694 164.135 337.417 168.078 338.203 170.579C339.036 173.193 340.576 174.615 341.094 176.361C340.703 174.627 338.429 174.752 338.203 173.47C339.148 175.925 341.206 176.626 341.094 179.253C341.05 180.018 341.05 181.378 341.094 182.144C341.172 182.9 340.805 184.332 341.094 185.035C340.993 184.255 341.117 182.93 341.094 182.144C341.094 181.264 341.169 180.245 341.094 179.253C341.053 177.306 341.582 175.356 341.094 173.47Z" fill="#EFA142"/>
<path d="M341.094 176.36V179.251V182.142C340.588 180.82 338.397 177.736 338.203 176.36C338.079 175.179 338.859 174.525 338.203 173.469C338.186 174.392 337.992 175.453 338.203 176.36C338.539 177.305 338.29 177.557 338.203 176.36C338.643 176.456 337.969 178.581 338.203 179.251C338.403 179.978 340.99 181.402 341.094 182.142C341.285 183.566 340.232 183.602 341.094 182.142C341.27 183.313 341.212 183.857 341.094 185.033C341.062 185.466 341.305 187.526 341.094 187.925C341.172 187.469 340.863 188.343 341.094 187.925C340.978 188.631 341.299 188.937 341.094 190.816C341.299 191.546 340.903 192.953 341.094 193.707C341.605 189.47 341.079 187.535 341.094 185.033C341.16 181.963 342.03 179.333 341.094 176.36Z" fill="#EFA142"/>
<path d="M326.641 153.232C326.143 152.411 327.225 151.096 326.641 150.341C326.872 150.846 326.447 152.727 326.641 153.232C325.591 152.115 324.921 151.34 323.75 150.341L320.859 147.45C319.816 146.588 318.986 145.31 317.969 144.558C316.951 143.808 316.122 145.1 315.078 144.558C311.294 142.376 305.007 139.305 300.625 138.776C295.373 138.468 291.245 138.665 286.172 138.776C283.597 138.862 280.075 138.493 277.5 138.776C274.925 139.059 274.293 138.579 271.719 138.776C269.144 138.973 269.801 141.753 271.719 141.667C273.637 141.581 277.204 138.665 277.5 138.776C276.136 139.86 271.21 141.04 268.828 141.667C268.455 142 271.211 142.061 274.609 141.667C276.309 141.495 278.692 141.815 280.391 141.667C282.09 141.52 282.148 141.618 283.281 141.667C287.143 141.31 287.878 139.232 289.062 138.776C290.048 138.999 290.941 138.712 291.953 138.776C292.959 138.86 293.881 141.383 294.844 141.667C298.252 141.636 303.117 140.819 306.406 141.667C309.34 142.455 311.384 143.29 315.078 144.558C316.044 145.334 313.514 145.1 312.187 144.558C311.054 144.066 310.861 144.017 312.187 144.558H315.078C318.492 145.81 321.134 147.897 323.75 150.341C325.993 152.416 328.089 156.368 329.531 159.014C328.089 156.626 327.253 153.575 329.531 156.123C329.893 157.009 329.236 158.128 329.531 159.014C331.141 160.894 334.026 162.702 335.312 164.797C333.885 162.334 333.734 161.107 332.422 159.014C331.11 156.921 327.49 153.232 326.641 153.232Z" fill="#EFA142"/>
<path d="M332.422 161.905C333.648 165.598 335.145 165.049 335.313 164.796C335.48 164.543 335.102 164.327 335.313 164.796C335.755 165.961 335.076 166.414 335.313 167.687C334.578 164.661 333.61 161.753 332.422 159.014C332.474 159.495 332.387 161.375 332.422 161.905Z" fill="#EFA142"/>
<path d="M297.734 138.775C296.376 138.468 296.24 138.992 294.844 138.775C297.09 139.656 302.414 138.494 297.734 138.775Z" fill="white"/>
<path d="M280.391 138.775H283.281C282.315 139.095 281.348 138.418 280.391 138.775C280.83 138.878 279.96 138.775 280.391 138.775Z" fill="white"/>
<path d="M265.937 138.776C264.915 138.304 264.284 138.457 265.937 138.776C267.552 139.367 270.005 138.895 271.718 138.776C270.377 138.841 270.107 139.188 268.828 138.776C268.096 138.431 265.521 138.776 265.937 138.776Z" fill="#EFA142"/>
<path d="M254.375 121.429C256.487 125.232 255.342 123.431 254.375 121.429C253.408 119.427 252.649 118.836 254.375 121.429C253.587 120.579 251.177 115.22 254.375 121.429Z" fill="white"/>
<path d="M245.703 98.2988C245.796 99.261 245.753 100.226 245.703 101.19C245.517 100.232 245.559 99.2607 245.703 98.2988Z" fill="#EFA142"/>
<path d="M312.188 138.777C313.17 139.032 314.182 138.444 315.078 138.777C314.11 138.444 313.199 139.045 312.188 138.777Z" fill="#EFA142"/>
<path d="M254.421 266.521C252.94 266.815 251.791 266.956 250.858 267.058C252.033 266.905 253.22 266.739 254.382 266.521H254.421Z" fill="#EFA142"/>
<path d="M250.093 265.535C252.396 264.996 254.772 264.836 257.127 265.062C258.438 265.149 259.754 265.119 261.06 264.972C263.092 264.771 265.101 264.377 267.06 263.795C263.051 264.883 258.774 265.766 254.382 266.521C248.408 266.226 258.8 265.356 250.093 265.535Z" fill="#EFA142"/>
<path d="M323.311 227.921L323.516 227.627C323.86 227.129 323.695 227.397 323.311 227.921Z" fill="#EFA142"/>
<path d="M33.5645 330.473H33.7431C33.9475 332.355 34.2793 334.208 34.5987 336.079C34.2284 334.222 33.8327 332.366 33.5645 330.473Z" fill="white"/>
<path d="M33.7431 329.656C33.3344 326.482 33.1558 323.255 33.0537 320.121C33.6301 329.549 35.4943 338.856 38.5945 347.778C41.7204 356.72 45.7953 365.301 50.7487 373.373L49.6635 371.876C49.3117 371.393 48.9958 370.884 48.7186 370.352C48.0803 369.291 47.1993 367.73 46.1653 365.81C43.6695 361.08 41.4692 356.197 39.5776 351.195C37.7082 346.248 36.1935 341.177 35.0454 336.017C34.1131 331.882 33.7686 329.231 33.7431 329.656Z" fill="white"/>
<path d="M33.0918 326.992C31.7257 321.565 32.3896 317.827 32.0959 311.059C32.2492 313.337 32.3385 315.257 32.5556 317.162C32.6449 318.11 32.7088 319.056 32.7726 320.041C32.8365 321.027 32.9258 322.025 32.9513 323.115C32.9258 324.407 33.0409 325.685 33.0918 326.992Z" fill="white"/>
<path d="M29.6575 299.258C29.7214 298.772 29.7725 298.286 29.8746 297.801C29.8746 298.388 29.7852 298.914 29.7598 299.322L29.6575 299.258Z" fill="#EFA142"/>
<path d="M29.7602 299.322L30.0282 299.452C29.7602 300.461 29.7218 300.155 29.7602 299.322Z" fill="#EFA142"/>
<path d="M29.8745 297.8C30.0534 296.52 30.2702 294.932 30.3214 294.1L30.0023 295.444C30.2555 293.415 30.6827 291.411 31.2791 289.457C30.296 293.065 30.4746 293.166 30.8449 293.371C31.3938 291.44 31.8407 289.532 32.5301 287.6C32.8365 288.303 32.3769 289.506 31.8023 291.235C31.5216 292.105 31.1129 293.076 30.781 294.178C30.4492 295.279 30.1555 296.494 29.8745 297.8Z" fill="#EFA142"/>
<path d="M40.2287 271.768C40.0755 272.1 39.7309 272.651 39.3861 273.265L38.416 275.185C37.8541 276.273 37.6115 276.823 38.6201 275.3C38.2498 276.221 37.6115 277.194 37.1138 278.333C37.5352 277.579 37.8 276.748 37.8925 275.889C37.989 275.493 38.144 275.113 38.3521 274.763C38.8903 273.712 39.5182 272.71 40.2287 271.768Z" fill="#EFA142"/>
<path d="M37.1136 278.295C36.9222 278.743 36.7051 279.229 36.386 279.882C36.6158 279.344 36.871 278.807 37.1136 278.295Z" fill="#EFA142"/>
<path d="M48.272 262.387L49.8933 260.736C49.4337 261.21 49.0126 261.658 48.6168 262.093L48.272 262.387Z" fill="#EFA142"/>
<path d="M92.4841 423.94C87.122 418.409 82.0791 413.098 74.7253 404.742C74.7253 405.06 71.7633 401.4 71.2016 401.042C75.0317 405.37 67.7161 397.318 60.9879 388.451C54.2597 379.581 48.4125 369.765 50.6978 373.758C51.221 374.498 51.7318 375.267 52.2808 375.996L50.455 373.784C49.038 371.402 47.506 368.51 46.1526 365.796C44.7992 363.084 43.5993 360.525 42.6928 358.874C42.6162 358.628 43.778 361.19 45.7696 365.029C47.7613 368.869 50.7106 373.923 53.9151 378.786C58.0423 384.99 62.5046 390.963 67.2819 396.679C60.5144 388.951 54.4476 380.633 49.1528 371.824C46.9698 368.204 44.9654 364.454 43.1652 360.831C41.3652 357.209 39.884 353.702 38.7096 350.594C36.3476 344.398 35.1859 339.905 35.007 339.498L35.1474 338.665C34.4965 336.63 34.0623 334.736 33.5645 332.969C33.0665 331.203 32.7219 329.514 32.3898 327.849C31.6833 324.527 31.1931 321.165 30.9216 317.779L31.3301 316.128C31.3038 318.141 31.4318 320.15 31.7131 322.142C31.9047 323.83 32.2493 325.522 32.6835 328.185C32.3771 325.866 32.1218 324.024 32.0452 322.437C31.9686 320.85 31.8408 319.557 31.8408 318.317C31.8408 315.833 31.8408 313.63 31.9302 310.074C31.5983 310.175 31.4324 311.711 31.4067 312.084C31.3812 312.454 31.4067 312.173 31.4067 311.456C31.4067 310.739 31.4067 309.421 31.4706 307.169C32.0195 304.61 32.0707 310.598 32.8494 302.638C33.6666 297.877 33.9984 295.971 34.1262 294.167C34.3904 291.62 34.9604 289.114 35.8241 286.705C35.1347 288.496 34.3941 290.276 33.8452 292.117C34.1901 290.582 34.8922 288.42 35.6198 286.295C36.2939 284.408 37.1492 282.59 38.1733 280.869C37.9817 281.265 37.7392 281.752 37.4966 282.289L36.82 284.081C36.5901 284.708 36.3603 285.361 36.1178 286.026C35.8753 286.692 35.7348 287.383 35.5562 288.023C34.8156 290.582 34.5731 292.808 34.9303 292.771C35.5229 290.354 36.3043 287.988 37.2668 285.693C37.8412 284.414 38.3265 283.134 38.9009 282.021C39.4756 280.907 39.9225 279.96 40.267 279.269L39.8967 281.188C40.3384 280.554 40.731 279.887 41.0715 279.192C41.4288 278.565 41.7609 277.912 42.08 277.324C42.3991 276.735 42.7567 276.044 43.1779 275.301C43.7051 274.522 44.2717 273.77 44.8758 273.049C46.8675 269.53 42.8842 274.649 43.9566 272.652C44.1098 272.512 44.4928 271.987 45.0548 271.283C45.6164 270.579 46.3313 269.709 47.123 268.723C47.9145 267.738 48.7571 266.88 49.4722 265.997C50.1871 265.114 50.838 264.359 51.2722 263.822C50.1359 264.052 48.6423 265.908 46.9571 268.058C46.1653 269.184 45.2846 270.361 44.4035 271.513C43.6424 272.657 42.7885 273.736 41.8502 274.738L44.0078 271.641C44.7099 270.605 45.5525 269.67 46.3313 268.672C47.3401 266.445 45.4505 268.813 43.5609 271.539C41.6716 274.265 40.0245 277.503 40.2416 276.197C40.4728 275.506 40.75 274.83 41.0715 274.175C41.4267 273.529 41.8147 272.901 42.2332 272.294C42.6544 271.692 43.0886 271.091 43.51 270.502C43.9312 269.914 44.4928 269.389 44.9782 268.838L46.4209 267.2C46.9186 266.663 47.4167 266.151 47.8633 265.601C48.3177 265.069 48.7441 264.513 49.1401 263.937C49.5485 263.375 49.9237 262.789 50.2637 262.183C49.9188 262.478 49.5104 262.862 48.9869 263.31C48.4634 263.758 48.0422 264.308 47.5187 264.871L45.9613 266.663L44.4547 268.544L43.0886 270.234L42.1312 271.616C41.5692 272.345 41.2628 272.678 41.3779 272.307C41.9852 271.564 42.5477 270.787 43.0631 269.977C43.5993 269.222 44.0971 268.454 44.6079 267.623L45.3993 266.343C45.7057 265.921 46.0121 265.472 46.3443 265.063C47.0594 264.025 47.8399 263.033 48.6805 262.094L51.2341 259.854C52.1148 259.138 53.034 258.472 53.9278 257.781C55.8171 255.592 54.0937 257.116 52.2553 258.446C57.1003 254.364 62.4046 250.863 68.0607 248.016C71.4095 246.379 74.9175 245.092 78.5296 244.176L81.2873 243.614L82.6661 243.345L84.0068 243.191L86.7517 242.922C87.6582 242.922 88.5645 242.922 89.4582 242.922C91.5649 242.73 92.6755 242.756 93.2883 242.679C93.9011 242.603 93.8372 242.538 93.684 242.449C93.5308 242.359 92.4841 242.027 94.4373 241.835C96.6845 242.359 99.6847 242.641 102.672 243.114C105.423 243.489 108.151 244.019 110.843 244.701C112.12 245.111 114.673 245.021 113.575 244.343C109.792 243.399 105.955 242.689 102.085 242.219C102.723 241.899 101.14 240.811 96.7993 240.542C98.2035 241.476 94.0416 240.683 89.2157 240.798C86.913 240.8 84.615 241.001 82.347 241.399C80.4193 241.86 79.0659 242.346 78.9638 242.807V242.014C74.005 243.455 69.2447 245.51 64.7925 248.131L65.2264 247.99C64.578 248.276 63.9583 248.623 63.3753 249.027L61.3582 250.307L58.9578 252.047C55.2587 254.805 51.7682 257.834 48.5146 261.109C48.8976 260.648 49.7913 259.649 50.8638 258.549C51.9362 257.448 53.2257 256.322 54.2724 255.413C56.4172 253.66 57.4897 252.636 53.9787 254.914C57.1012 252.098 60.5676 249.689 64.2945 247.747C69.2178 245.165 74.4232 243.163 79.8064 241.783H77.4445C78.9384 241.335 80.4959 240.9 82.1299 240.504C83.7643 240.107 85.4877 239.902 87.2368 239.736C90.8544 239.423 94.4943 239.474 98.1015 239.889C105.009 240.881 111.812 242.5 118.427 244.727C117.15 244.573 115.873 244.433 114.597 244.317C118.874 245.866 124.031 248.374 128.104 249.117C123.074 247.389 125.806 247.837 126.827 247.837C130.287 248.822 134.398 250.307 138.751 251.676C143.243 253.146 147.823 254.33 152.463 255.221C152.463 255.221 151.978 255.285 152.348 255.49C155.604 256.066 158.898 256.488 162.192 256.898C165.234 257.471 168.223 258.297 171.129 259.368C172.891 259.496 177.193 259.982 175.61 259.368C174.691 259.227 173.771 259.073 173.159 259.035C178.265 258.702 176.644 259.726 183.027 259.752C178.061 260.072 184.457 261.032 183.819 261.684C191.3 261.94 184.611 260.405 185.581 260.084C194.518 261.185 195.731 261.889 204.872 262.414C205.421 261.966 198.386 261.838 197.658 261.236C199.691 261.487 201.743 261.543 203.787 261.403L198.195 260.776C207.843 261.881 217.568 262.168 227.265 261.633L226.448 261.39C228.606 261.39 230.751 261.275 232.908 261.211L230.623 262.209C234.108 261.889 237.887 262.414 239.7 261.595H238.423C239.866 261.428 241.309 261.185 242.739 260.968C241.283 261.39 239.815 261.838 238.334 262.247C243.926 262.247 251.382 259.688 260.038 258.254C260.574 258.472 259.898 258.779 258.57 259.163C257.242 259.547 255.238 259.867 253.157 260.276C248.956 261.019 244.347 261.684 243.824 262.503C245.632 262.507 247.438 262.417 249.237 262.235C250.749 262.16 252.246 261.898 253.693 261.454C253.155 261.249 252.57 261.205 252.008 261.326C251.152 261.326 250.08 261.492 249.007 261.608C249.978 261.39 251.012 261.198 252.084 261.032C253.157 260.865 254.255 260.622 255.391 260.443C257.65 260.123 259.974 259.701 262.208 259.304C266.664 258.472 270.711 257.423 272.882 256.066C270.954 256.424 269.051 256.795 267.098 257.039C267.928 256.821 268.719 256.655 269.473 256.501C270.226 256.348 270.954 256.168 271.63 256.04C273.009 255.772 274.273 255.605 275.371 255.426C277.058 255.265 278.689 254.732 280.146 253.865L275.524 257.026C277.133 256.309 278.857 255.58 280.631 254.888L285.981 252.572C287.755 251.766 289.467 250.87 291.086 250.013C292.708 249.155 294.202 248.195 295.569 247.35C295.416 246.915 293.384 247.99 291.407 249.129C289.427 250.268 287.41 251.241 287.577 251.075L290.129 249.219C294.714 247.286 295.364 246.979 296.309 246.659C297 246.404 297.674 246.105 298.327 245.763C298.862 245.508 299.527 245.175 300.368 244.688C301.212 244.202 302.258 243.614 303.51 242.794L303.267 242.244C304.455 241.691 305.571 240.99 306.586 240.158C307.748 239.198 308.947 238.149 309.907 237.214C311.846 235.384 312.994 234.156 312.063 236.127C311.196 236.805 310.262 237.406 309.369 238.021L310.046 238.379C313.48 235.228 316.651 231.804 319.533 228.141C319.099 229.548 323.195 224.16 322.608 225.991L323.886 223.725L325.164 221.434C326.222 220.718 325.164 222.88 323.733 225.274C322.302 227.667 320.437 230.214 320.541 230.674C320.77 230.751 321.293 230.316 321.816 229.728C322.339 229.139 322.903 228.371 323.259 227.884C321.854 230.157 320.036 232.145 317.897 233.746C316.021 235.243 314.066 236.574 311.682 238.635C311.028 239.48 310.404 240.337 309.702 241.195L309.268 240.401C307.828 241.735 306.516 243.2 305.348 244.778C302.371 246.275 299.475 247.924 296.668 249.718C293.161 251.958 289.433 253.832 285.546 255.311C287.347 254.492 287.908 254.031 287.781 254.031C287.128 254.119 286.487 254.273 285.866 254.492C283.861 255.08 281.142 255.989 281.729 255.631C279.686 256.296 276.303 257.96 272.792 259.138L270.239 260.021C269.396 260.264 268.566 260.481 267.788 260.66C266.539 260.999 265.25 261.162 263.957 261.147C261.404 261.236 269 259.393 263.076 260.443C259.246 261.287 256.693 262.247 259.246 262.209C250.68 264.065 240.224 264.769 230.61 265.114L232.883 264.423C227.833 264.285 222.784 264.714 217.83 265.703C217 265.447 216.554 265.626 217.473 265.268C209.813 264.154 207.566 266.394 194.85 265.524C195.514 266.407 201.233 266.804 205.28 266.522L204.195 267.443C209.698 267.686 215.558 267.776 221.162 267.661C226.767 267.546 232.078 267.2 236.483 266.624C235.13 266.957 233.776 267.277 232.423 267.546C234.598 267.98 236.845 267.878 238.972 267.251C240.986 266.653 243.112 266.539 245.177 266.919C250.488 266.087 241.27 266.778 245.254 265.997C249.084 265.908 244.45 267.815 250.807 267.136C238.346 268.784 225.773 269.434 213.209 269.082C200.263 268.838 187.202 268.16 174.703 266.816C174.206 266.932 175.521 267.149 176.823 267.354C171.457 267.146 166.119 266.487 160.864 265.383C152.019 263.723 143.316 261.378 134.832 258.37C125.895 255.157 117.507 251.638 110.843 249.795C104.179 247.952 99.493 247.491 98.893 248.003C97.7312 247.53 101.702 247.645 96.544 247.056C96.0587 247.184 94.731 247.274 95.9055 247.696C88.5858 246.523 81.0858 247.359 74.2018 250.115C66.6674 253.104 59.718 257.402 53.6723 262.811C54.1449 262.811 51.7957 265.37 51.9235 265.601C50.7262 266.6 49.6078 267.691 48.5784 268.864C47.5315 270.208 46.3313 271.616 45.3612 273.151C44.8631 273.906 44.3781 274.674 43.893 275.417C43.4077 276.159 43.012 276.94 42.6162 277.656C41.7352 279.077 41.0458 280.446 40.3948 281.496L41.4418 280.216C38.9758 284.962 37.0651 289.978 35.7475 295.165C35.7475 295.65 36.3349 293.551 36.7306 292.337C35.8753 295.714 35.4538 296.419 35.0708 296.688C34.7263 299.068 34.5858 301.462 34.458 303.829C32.4025 314.067 33.1815 326.224 36.1944 338.064C39.4175 350.027 44.2176 361.505 50.468 372.197C52.5999 375.177 54.2981 377.814 57.7961 382.908C57.2344 382.076 56.7109 381.194 56.1747 380.347C59.8389 385.467 56.2513 380.731 59.3665 385.071C61.588 387.936 60.2603 385.773 57.4003 381.795C55.8044 379.158 56.9026 380.705 58.1664 382.498C63.4675 390.31 69.1958 397.821 75.3251 404.997C81.0959 411.909 86.9177 418.204 92.4841 423.94Z" fill="#EFA142"/>
<path d="M279.597 39.5855C279.868 38.6884 280.192 37.808 280.568 36.949C281.155 35.2982 281.615 34.0183 280.657 36.4373C276.962 45.9362 272.039 54.9075 266.013 63.1212C262.668 67.7286 258.787 71.9774 255.391 76.2266C252.098 80.0964 249.353 84.403 247.233 89.0246C246.481 90.6933 245.916 92.4402 245.548 94.2333C245.197 95.9165 245.034 97.6335 245.063 99.3526C245.139 99.4423 245.216 99.4423 245.28 99.2245C245.436 102.274 246.007 105.288 246.978 108.183C247.988 111.13 249.151 114.022 250.463 116.848C251.216 118.128 252.033 118.934 250.68 116.451C252.57 119.906 254.166 123.003 255.48 125.704C256.5 128.023 257.855 130.18 259.502 132.103C258.468 130.593 259.106 131.258 259.694 131.834C260.281 132.41 260.791 132.896 259.515 131.181C260.728 132.704 261.647 133.741 262.375 134.471C263.102 135.2 263.651 135.827 264.175 136.352C264.735 136.923 265.37 137.414 266.064 137.811C267.105 138.386 268.261 138.723 269.448 138.796C269.831 138.681 270.201 138.591 268.975 138.476C272.282 139.206 277.823 137.772 282.649 137.196C287.474 136.62 291.586 136.557 291.93 137.196C292.927 137.03 293.922 136.838 294.919 136.723C295.96 136.878 296.992 137.091 298.006 137.363C298.876 137.593 300.012 137.721 302.666 138.195C306.178 138.54 302.666 137.683 303.944 137.708C304.692 138.022 305.47 138.257 306.268 138.412C307.404 138.694 308.82 139.091 310.288 139.539C313.075 140.366 315.72 141.604 318.139 143.211C318.139 143.416 317.694 143.211 317.018 142.892C316.341 142.572 315.434 141.906 314.324 141.356C312.095 140.08 309.632 139.266 307.086 138.963C306.918 139.078 307.505 139.27 308.36 139.5C303.241 138.206 297.998 137.464 292.722 137.286C287.878 137.089 283.027 137.242 278.206 137.747C273.584 138.259 269.179 138.886 265.618 137.273C262.055 135.661 259.234 132.397 256.783 128.775C255.559 126.102 253.983 123.606 252.097 121.353C252.799 122.824 254.166 125.704 255.557 128.071C256.949 130.439 258.481 132.218 258.889 132.013C259.836 133.554 260.973 134.968 262.273 136.224C263.945 137.35 263.549 138.054 264.252 138.643C262.439 137.76 260.689 136.493 259.809 135.993C259.374 135.725 259.132 135.686 259.247 135.993C259.66 136.732 260.221 137.377 260.894 137.888C259.677 137.098 258.676 136.016 257.983 134.739C257.894 134.381 258.391 134.586 258.889 134.739C259.387 134.893 259.949 135.174 259.936 134.944C259.923 134.714 259.336 134.099 257.881 132.308C257.447 132.077 257 131.847 256.604 131.591C257.268 132.205 256.451 130.849 255.391 128.942C254.331 127.035 253.017 124.59 252.199 123.31L252.697 124.475C249.799 118.972 246.607 112.957 244.897 106.11C244.007 102.644 243.735 99.0482 244.092 95.4874C244.292 93.6738 244.677 91.8856 245.241 90.1507C245.825 88.3879 246.55 86.6758 247.412 85.0316C250.91 78.4533 256.157 72.9373 260.932 67.3189C265.571 61.9153 269.708 56.098 273.29 49.9393C275.714 46.1522 277.778 42.1459 279.457 37.9731C281.41 33.353 283.019 28.656 283.964 25.5973C284.908 22.5385 282.687 29.731 284.334 24.1383C285.138 21.3355 285.176 21.0795 285.151 21.2075C285.368 20.35 285.572 19.4926 285.789 18.6479C286.006 17.8033 285.789 18.3408 285.125 21.6299C283.733 27.7452 281.885 33.7474 279.597 39.5855Z" fill="#EFA142"/>
<path d="M254.356 292.77C257.65 291.978 264.825 290.544 264.838 291.489C264.838 291.029 264.838 290.798 265.438 290.506C266.038 290.211 267.251 289.928 269.613 289.058C269.613 289.673 273.979 288.598 276.737 287.971C275.243 288.036 273.754 288.198 272.281 288.457C270.392 288.739 268.043 289.263 264.851 289.647C259.259 292.09 246.862 291.31 241.449 293.027C245.458 293.013 249.467 293.741 254.356 292.77Z" fill="white"/>
<path d="M281.461 291.9L282.24 291.324C280.567 291.836 278.92 292.449 277.235 292.885L272.128 294.166C273.137 293.808 275.371 293.18 277.388 292.692C278.706 292.252 280.075 291.986 281.461 291.9Z" fill="white"/>
<path d="M312.792 279.486C312.268 280.561 317.145 278.423 317.336 278.987C316.94 278.436 318.741 277.387 321.166 276.184C323.658 274.976 326.063 273.599 328.366 272.063C328.699 271.435 329.031 270.783 329.349 270.207C327.294 271.116 324.002 273.214 320.004 275.326L313.722 278.705C311.514 279.78 309.254 280.778 307.097 281.751L312.792 279.486Z" fill="#EFA142"/>
<path d="M320.68 276.145C321.461 275.48 322.238 274.866 322.967 274.098C320.912 275.544 315.792 278.308 320.68 276.145Z" fill="white"/>
<path d="M313.378 275.978C311.783 276.848 311.17 277.053 311.158 277.13C311.511 277.074 311.858 276.98 312.19 276.848C312.714 276.669 313.225 276.477 313.214 276.58C313.199 276.682 312.69 277.079 311.028 277.859C312.011 277.367 312.959 276.806 313.864 276.183C314.462 275.773 314.514 275.62 313.378 275.978Z" fill="white"/>
<path d="M339.92 260.814C336.078 264.366 332 267.654 327.716 270.656C328.673 270.144 329.606 269.581 330.537 269.018C331.468 268.455 332.413 267.904 333.321 267.303C335.604 265.217 337.839 263.067 339.92 260.814Z" fill="#EFA142"/>
<path d="M341.99 261.863C340.443 263.258 337.674 265.037 339.729 262.874C340.825 262.157 341.874 261.371 342.868 260.519C343.765 259.687 344.554 258.868 345.346 258.062C346.138 257.256 346.84 256.385 347.658 255.502C348.473 254.619 349.329 253.813 350.326 252.943C349.317 254.299 348.219 255.592 347.121 256.885C347.658 256.885 349.393 254.888 350.951 252.866C352.509 250.844 353.94 248.924 354.463 249.513C356.174 246.454 355.087 247.299 354.272 247.977C353.835 248.297 353.454 248.579 353.48 248.31C353.919 247.274 354.457 246.284 355.087 245.354C351.055 251.251 346.126 256.48 340.484 260.852C342.059 259.791 343.565 258.628 344.99 257.371C340.94 261.59 336.578 265.496 331.942 269.055C335.055 268.006 337.98 264.717 341.99 261.863Z" fill="#EFA142"/>
<path d="M358.753 242.755C360.452 240.218 361.932 237.538 363.169 234.744C364.317 232.005 365.034 229.624 364.739 228.754C363.12 231.425 362.005 234.37 361.447 237.444L359.328 240.631C358.585 241.68 357.972 242.23 358.331 241.181C358.969 240.631 357.105 244.573 358.753 242.755Z" fill="#EFA142"/>
<path d="M367.792 223.366C367.867 222.009 367.792 220.627 367.792 219.283L367.37 221.843L366.641 221.958C366.791 222.66 366.852 223.378 366.82 224.095C366.797 224.883 366.705 225.667 366.54 226.437C366.271 227.56 365.924 228.664 365.505 229.739C366.069 228.778 366.497 227.745 366.783 226.668C367.049 225.547 367.387 224.444 367.792 223.366Z" fill="#EFA142"/>
<path d="M363.577 220.909C364.184 219.51 364.615 218.039 364.855 216.533C365.083 214.907 365.225 213.271 365.277 211.631C364.982 214.601 364.482 217.548 363.782 220.449C363.117 223.226 362.429 225.568 362.302 226.349V225.875C362.302 225.875 361.981 227.155 361.536 228.883C361.088 230.61 360.426 232.722 359.825 234.591C360.909 231.903 362.455 228.192 363.438 225.338C363.823 224.187 364.103 223.005 364.279 221.805C364.268 220.986 364.089 220.602 363.577 220.909Z" fill="#EFA142"/>
<path d="M361.305 227.578C361.562 226.298 361.944 224.954 362.111 223.623C361.944 224.954 361.562 226.246 361.305 227.578Z" fill="#EFA142"/>
<path d="M370 206.639C369.85 209.412 369.526 212.173 369.029 214.906L369.566 212.923C369.72 211.886 369.772 210.837 369.847 209.787C369.925 208.738 369.988 207.688 370 206.639Z" fill="#EFA142"/>
<path d="M366.271 216.084C366.861 212.922 366.476 213.755 366.196 214.637C366.043 215.085 365.826 215.52 365.762 215.495C365.731 214.816 365.791 214.136 365.942 213.473C365.942 212.667 365.762 214.855 365.34 217.312C364.965 219.088 364.684 220.882 364.496 222.687C364.872 221.496 365.15 220.276 365.329 219.04C365.595 217.594 365.8 216.314 366.271 216.084Z" fill="#EFA142"/>
<path d="M367.511 184.178C367.231 183.794 366.973 183.397 366.681 183.013C365.742 179.503 364.514 176.079 363.005 172.775C361.484 169.422 359.978 166.375 359.175 164.008C359.238 165.288 356.85 162.19 359.519 167.335C360.195 167.988 361.14 169.895 361.305 169.383C362.288 171.674 361.689 171.392 362.25 172.954C362.837 173.979 363.369 175.034 363.846 176.115C364.369 177.279 364.817 178.547 365.288 179.762C365.762 180.978 366.132 182.207 366.502 183.32C366.872 184.434 367.19 185.445 367.537 186.238C367.19 185.181 366.907 184.104 366.693 183.013C367.705 185.293 368.289 187.74 368.416 190.231C368.326 191.72 368.685 193.201 369.451 194.48C368.647 191.997 368.722 187.429 367.511 184.178Z" fill="#EFA142"/>
<path d="M364.548 185.6C365.019 187.43 365.34 189.299 365.673 191.141C365.083 189.855 364.655 188.501 364.395 187.11C364.19 185.916 363.756 184.773 363.117 183.744C362.915 184.167 364.1 189.58 363.36 187.673C364.167 187.814 364.638 189.683 364.944 191.103C365.251 192.524 365.467 193.522 366.043 191.935C366.317 193.094 366.485 194.277 366.54 195.467C366.551 195.9 366.497 196.332 366.375 196.747C366.207 197.387 366.054 198.027 366.311 201.866L367.179 204.004C366.936 199.716 366.641 197.233 366.413 194.725C366.271 193.445 366.069 192.165 365.826 190.758C365.493 189.016 365.066 187.295 364.548 185.6Z" fill="#EFA142"/>
<path d="M356.339 165.366C356.047 164.483 355.674 163.612 355.319 162.806L355.547 164.431C352.255 159.031 349.725 154.641 347.288 150.866C345.181 147.345 342.542 144.176 339.461 141.472C335.567 138.503 331.928 135.559 328.06 132.82C324.14 129.965 319.955 127.496 315.561 125.449C311.005 123.772 319.634 127.701 319.94 128.239C318.307 128.405 315.931 125.679 313.558 125.397C313.124 125.551 315.344 126.805 318.09 128.341C320.703 129.777 323.224 131.38 325.635 133.14C328.725 135.073 328.814 134.855 329.951 135.188C330.543 135.928 331.211 136.605 331.942 137.21C332.645 137.84 333.281 138.539 333.844 139.296C336.457 141.145 338.848 143.293 340.967 145.695C342.935 147.807 344.797 150.008 347.352 152.657C348.41 154.807 343.649 148.472 345.181 150.405C346.048 151.454 346.968 152.453 347.797 153.527L347.606 153.131C350.003 155.658 352.107 158.448 353.876 161.45C355.417 164.007 356.729 166.697 357.796 169.487C357.391 168.558 357.059 167.599 356.799 166.62C356.799 166.159 357.079 166.364 357.961 167.772L358.547 170.523C359.9 172.494 361.178 174.525 362.378 176.615C361.025 174.209 360.004 171.496 358.981 169.295C357.961 167.093 357.157 165.507 356.339 165.366Z" fill="#EFA142"/>
<path d="M358.753 172.929C360.285 176.769 360.348 176.525 360.577 176.269C360.808 176.013 360.796 176.052 361.077 176.525C361.69 177.709 362.169 178.958 362.505 180.25C361.409 177.199 360.152 174.208 358.738 171.291L358.753 172.929Z" fill="#EFA142"/>
<path d="M335.772 139.973C334.801 138.937 333.755 137.99 332.734 136.979C334.009 139.052 339.781 142.482 335.772 139.973Z" fill="white"/>
<path d="M322.993 131.016L325.302 131.502L323.478 130.658L321.625 129.877L322.993 131.016Z" fill="white"/>
<path d="M310.621 123.721C307.594 122.608 310.875 124.63 314.272 126.166C311.271 124.668 309.843 123.593 310.621 123.721Z" fill="#EFA142"/>
<path d="M293.167 108.644C293.523 109.239 293.951 109.785 294.445 110.27C294.344 110.129 293.87 109.451 293.398 108.683C292.442 107.16 291.572 105.343 293.118 107.288C292.771 106.981 292.031 106.149 291.84 106.008C291.65 105.867 291.624 106.251 293.167 108.644Z" fill="white"/>
<path d="M287.883 87.3223C287.984 88.5999 287.984 89.8838 287.883 91.1617C287.793 90.3843 287.754 89.6019 287.768 88.8196C287.762 88.318 287.8 87.8169 287.883 87.3223Z" fill="#EFA142"/>
<path d="M346.56 147.59C347.155 148.203 347.719 148.848 348.245 149.522C347.684 148.857 347.161 148.217 346.56 147.59Z" fill="#EFA142"/>
<path d="M345.436 146.348C345.808 146.756 346.19 147.165 346.56 147.624L345.436 146.348Z" fill="#EFA142"/>
<path d="M301.723 285.924C300.446 286.486 299.411 286.894 298.593 287.201L301.683 285.924H301.723Z" fill="#EFA142"/>
<path d="M297.546 285.884C299.509 284.84 301.657 284.192 303.868 283.977C306.976 283.406 309.962 282.306 312.702 280.727C309.204 282.454 305.603 284.425 301.683 285.923C296.194 286.895 305.438 283.837 297.546 285.884Z" fill="#EFA142"/>
<path d="M358.562 237.585L358.701 237.291C358.958 236.793 358.842 237.048 358.562 237.585Z" fill="#EFA142"/>
<path d="M58.7279 329.145L58.8811 329.22C58.5426 330.946 58.338 332.698 58.2683 334.456C58.2807 332.675 58.4345 330.899 58.7279 329.145Z" fill="white"/>
<path d="M59.1746 328.477C59.8239 325.591 60.8049 322.793 62.0985 320.133C60.328 324.131 59.2819 328.413 59.0087 332.779C58.7812 337.118 59.3833 341.461 60.7833 345.575C62.2737 349.73 64.1546 353.731 66.4009 357.53L73.1164 369.048L72.1076 367.626C72.1076 367.805 70.8311 365.504 68.7117 361.971C66.078 357.706 63.7363 353.268 61.7025 348.686C59.7574 344.199 58.7454 339.359 58.728 334.467C58.7277 332.926 58.8301 331.388 59.0344 329.859C59.1492 328.809 59.2512 328.297 59.1746 328.477Z" fill="white"/>
<path d="M59.4558 325.943C59.7446 323.599 60.4675 321.329 61.5879 319.25C62.6222 317.189 63.8605 315.104 65.418 312.314C63.3882 316.076 62.3797 318.877 60.7838 322.552C60.3114 323.677 59.8261 324.79 59.4558 325.943Z" fill="white"/>
<path d="M69.5161 301.612C69.8482 301.268 70.1674 300.924 70.5119 300.617C70.1289 301.025 69.8225 301.433 69.58 301.727L69.5161 301.612Z" fill="#EFA142"/>
<path d="M69.5803 301.73L69.7208 301.985C68.9421 302.609 69.0826 302.355 69.5803 301.73Z" fill="#EFA142"/>
<path d="M70.5122 300.616L72.8869 297.991L71.8783 298.835C73.206 297.418 74.6683 296.132 76.2446 294.996C73.4358 297.135 73.5505 297.378 73.691 297.76C75.1465 296.531 76.6531 295.38 78.2105 294.305C77.9553 295.75 74.2145 297.083 70.5122 300.616Z" fill="#EFA142"/>
<path d="M93.0457 286.807C91.7689 287.37 86.662 289.674 89.8411 288.522C89.0239 288.983 88.0408 289.457 86.9941 289.943C88.6794 289.059 88.6536 288.842 88.9473 288.534C89.241 288.227 89.8793 287.792 93.0457 286.807Z" fill="#EFA142"/>
<path d="M86.9942 289.943L85.5515 290.736C86.0238 290.452 86.5219 290.186 86.9942 289.943Z" fill="#EFA142"/>
<path d="M104.396 284.464L106.515 284.119L104.817 284.438L104.396 284.464Z" fill="#EFA142"/>
<path d="M104 422.631C100.476 416.308 97.1949 410.28 92.0114 401.219C92.0114 401.514 89.9048 397.585 89.4582 397.163C92.1519 401.847 87.0835 393.017 81.798 383.994C76.5122 374.97 70.9969 365.756 73.1036 369.532L74.5463 371.683L72.7717 369.558C70.2182 365.039 66.9243 358.742 65.0093 355.799C64.5369 354.929 87.3003 393.962 86.4707 392.465C87.3642 394.257 79.6659 381.241 71.5461 367.665C67.5371 360.856 63.1454 354.033 60.8089 348.248C59.4214 344.853 58.4649 341.297 57.9619 337.666L58.2556 336.923C57.8434 333.445 57.9079 329.926 58.447 326.466C58.9384 323.277 59.844 320.166 61.141 317.214L62.2643 316.049C61.322 317.697 60.5641 319.443 60.0047 321.259C59.4619 323.097 59.0355 324.971 58.7279 326.865C59.3673 323.817 60.4062 320.868 61.8174 318.096C63.0043 315.809 64.3305 313.594 65.788 311.466C65.4434 311.365 64.5115 312.516 64.3583 312.747C64.2051 312.978 64.4219 312.336 66.9116 308.829C67.7669 307.948 67.4605 308.74 67.5244 308.986C67.5883 309.228 67.9328 308.896 70.3841 306.066C73.5505 302.816 74.8654 301.576 75.976 300.28C77.5369 298.496 79.3421 296.941 81.3381 295.66C79.7934 296.571 78.2613 297.542 76.7932 298.592C78.2732 297.386 79.8159 296.256 81.4147 295.215C82.9913 294.197 84.6632 293.342 86.4068 292.653C84.2837 293.738 82.27 295.021 80.3935 296.493C78.4145 298.043 76.9848 299.552 77.304 299.757C79.0785 298.257 80.9794 296.912 82.9852 295.738C85.2451 294.382 87.5686 293.281 88.8835 292.653C88.4112 293.05 87.9643 293.486 87.5174 293.934C90.5433 293 91.9094 291.555 95.8415 290.708C99.3398 289.288 93.4287 290.708 95.3692 289.826C95.7649 289.826 97.7439 289.251 99.9526 288.802C101.063 288.584 102.225 288.341 103.259 288.098C104.293 287.855 105.213 287.701 105.812 287.483C105.077 287.275 104.302 287.244 103.553 287.394C102.582 287.573 101.421 287.867 100.182 288.187C97.6288 288.84 94.935 289.8 92.5222 290.158C94.744 289.369 97.0122 288.721 99.314 288.213C101.357 287.189 98.5738 287.714 95.599 288.725C92.6243 289.736 89.5729 291.144 90.4921 290.286C92.8544 288.775 95.5241 287.813 98.3055 287.471C100.938 287.197 103.518 286.546 105.966 285.538C103.296 285.812 100.647 286.265 98.0375 286.895C95.1776 287.573 92.9307 288.341 93.5308 287.906C97.2458 286.997 99.6843 285.577 104.791 284.438L107.945 284.182L111.073 284.143C113.626 283.465 111.545 283.708 109.438 283.708C115.245 283.283 121.07 283.151 126.891 283.312C133.59 283.499 140.259 284.282 146.82 285.653C154.327 286.575 147.854 285.218 151.327 285.269C155.157 286.677 161.962 287.176 166.035 287.829C167.234 288.098 169.571 287.663 168.46 287.138L158.068 285.858C158.63 285.526 157.251 284.578 153.497 284.079C154.659 285.052 151.033 284.207 146.935 283.427C144.892 283.03 142.722 282.684 141.011 282.505C139.3 282.326 138.011 282.39 137.768 282.787L138.011 282.044C133.44 281.776 128.844 281.609 124.223 281.75L124.631 281.865C123.995 281.789 123.352 281.789 122.716 281.865C121.503 281.865 119.792 282.019 117.852 282.121C114.022 282.441 109.106 282.94 105.289 283.529C105.825 283.388 107.025 283.12 108.417 282.915L112.643 282.364C115.196 282.121 116.473 281.904 112.643 281.776C118.35 280.752 128.627 281.315 138.828 282.147L136.888 281.417C142.89 281.686 148.864 282.401 154.761 283.555C160.966 284.655 167.209 285.973 172.916 286.793L169.405 286.997C173.363 287.957 178.406 289.326 182.261 289.236C177.397 288.546 179.963 288.495 180.883 288.29C184.189 288.597 188.236 289.019 192.577 289.569C196.918 290.121 201.578 290.595 206.072 290.659C206.072 290.659 205.625 290.812 205.995 290.951C209.149 290.951 212.289 291.055 215.43 290.951C218.361 291.156 221.27 291.61 224.124 292.309C225.771 292.205 229.831 292.22 228.286 291.731C227.512 291.691 226.737 291.691 225.963 291.731C230.712 290.823 229.295 292.052 235.219 291.298C230.648 292.205 236.674 292.321 236.163 293.116C243.121 292.564 236.751 291.72 237.619 291.335C239.726 291.413 241.372 291.399 242.79 291.425L246.62 291.529C249.63 291.624 252.643 291.491 255.633 291.13C256.067 290.595 249.633 291.514 248.867 291.017C250.759 290.965 252.641 290.719 254.484 290.286L249.313 290.505C258.286 290.236 267.197 288.926 275.869 286.601L275.077 286.524C277.043 286.165 278.907 285.564 280.899 285.09L279.035 286.524C280.567 286.051 282.128 285.679 283.708 285.41C284.384 285.279 285.053 285.112 285.712 284.911C286.236 284.746 286.725 284.485 287.155 284.143L285.993 284.45L289.823 282.928L286.108 285.065C289.039 284.2 291.889 283.078 294.624 281.712C296.182 280.893 297.815 280.035 299.538 279.152C300.408 278.73 301.301 278.32 302.221 277.936C303.14 277.552 304.045 277.066 305.004 276.656C307.224 277.245 291.852 282.544 291.202 284.079C292.852 283.755 294.482 283.328 296.078 282.8C297.413 282.367 298.697 281.792 299.908 281.085C299.437 280.803 297.561 281.52 295.67 282.236C298.963 280.496 303.331 279.088 307.161 277.245L309.996 275.965C310.875 275.599 311.728 275.171 312.549 274.686C313.876 273.937 315.113 273.04 316.237 272.011L311.132 274.161C313.454 272.883 315.879 271.804 318.382 270.936C319.929 270.513 321.336 269.692 322.469 268.555C321.293 269.835 320.157 271.23 318.882 272.395C324.282 268.619 331.225 263.935 335.477 259.597C335.234 259.2 333.59 260.608 331.928 261.964C330.936 262.881 329.887 263.736 328.788 264.524C329.453 263.82 330.066 263.052 330.728 262.31C332.694 261.03 333.78 260.237 334.558 259.75C335.339 259.264 335.645 259.072 336.041 258.841C336.434 258.611 336.871 258.304 337.764 257.638C338.657 256.973 340.01 255.898 342.155 254.017L341.811 253.53C342.828 252.821 343.762 251.997 344.594 251.073C345.563 250.024 346.47 248.833 347.274 247.861C348.768 245.851 349.725 244.597 349.15 246.581C348.398 247.298 347.684 248.027 346.892 248.693L347.606 248.961C350.335 245.561 352.798 241.954 354.975 238.172C354.769 239.542 357.819 234.026 357.527 235.818C358.088 234.282 358.663 232.772 359.149 231.236C359.594 230.839 359.657 231.236 359.519 231.914C359.224 232.962 358.871 233.992 358.458 234.999C357.475 237.392 356.148 240.041 356.301 240.451C356.813 240.579 357.949 238.518 358.458 237.494C357.492 239.806 356.076 241.902 354.295 243.663C353.506 244.469 352.688 245.237 351.858 246.12C350.896 247.032 349.994 248.002 349.15 249.025L347.684 251.649L347.135 250.945C345.982 252.394 344.996 253.97 344.198 255.642C342.923 256.469 341.715 257.393 340.585 258.406C339.385 259.392 338.249 260.544 336.96 261.683C334.133 264.39 331.06 266.824 327.78 268.952C330.69 266.623 329.58 267.122 327.895 268.082C326.21 269.042 323.808 270.347 324.282 269.912C323.426 270.449 322.29 271.192 321.013 272.151C319.735 273.111 318.255 273.982 316.801 274.929C315.344 275.876 313.876 276.759 312.56 277.488C311.456 278.033 310.285 278.424 309.077 278.653C306.739 279.242 313.315 275.991 308.106 278.154C304.825 279.779 302.718 281.276 305.042 280.714C296.818 284.375 288.269 287.255 279.508 289.314L281.435 288.187C280.071 288.416 278.721 288.715 277.388 289.083C276.111 289.404 274.835 289.725 273.66 290.095C271.711 290.693 269.797 291.404 267.928 292.22C267.111 292.104 266.715 292.347 267.519 291.847C264.572 291.922 261.655 292.463 258.876 293.449C257.472 293.807 255.914 294.215 253.973 294.588C251.584 295.082 249.159 295.38 246.722 295.481C247.928 296.001 249.26 296.152 250.552 295.918C252.569 295.759 254.574 295.464 256.552 295.036L255.684 296.097C265.75 295.036 275.668 292.856 285.253 289.595L281.716 291.271C289.094 290.708 286.376 288.712 293.283 288.111C297.968 286.229 289.658 288.738 293.141 287.189C294.878 286.78 294.803 287.189 294.994 287.599C295.185 288.008 295.682 288.251 298.492 287.164C287.439 291.436 275.966 294.521 264.264 296.366C252.311 298.254 240.233 299.219 228.133 299.257C227.686 299.436 228.925 299.5 230.163 299.578C228.331 299.763 226.489 299.838 224.648 299.809C223.371 299.809 221.89 299.809 220.307 299.809L215.2 299.526C207.872 299.156 198.884 298.106 190.151 296.866C185.785 296.198 181.47 295.585 177.384 294.83L166.405 292.911C160.021 291.783 155.527 291.234 154.914 291.694C153.816 291.17 157.608 291.465 152.706 290.644C152.233 290.734 150.956 290.722 152.055 291.234C145.232 289.514 138.266 288.425 131.244 287.983C123.591 287.462 115.909 287.517 108.264 288.149C108.634 288.431 105.404 289.109 105.391 289.34C103.926 289.378 102.468 289.557 101.038 289.878C100.223 290.011 99.4172 290.196 98.6246 290.427C97.8077 290.633 96.9906 290.887 96.1991 291.156C92.9691 292.231 89.9305 293.651 87.7218 294.562C88.2325 294.434 88.743 294.304 89.2538 294.203C84.7574 296.291 80.5374 298.93 76.6911 302.061C76.4229 302.42 77.9676 301.151 78.9765 300.474C78.1706 301.182 77.3175 301.839 76.4229 302.431C76.1015 302.651 75.7257 302.773 75.3377 302.79C73.8312 304.455 72.4015 306.155 71.0865 307.91C67.4195 311.489 64.4722 315.745 62.4048 320.437C58.9534 328.096 58.4978 336.775 61.128 344.755C62.0299 347.484 63.1442 350.135 64.4603 352.691C67.1029 357.809 70.167 362.929 72.8992 367.983C74.8909 370.825 76.4486 373.346 79.3465 378.414L78.0061 375.855C81.1083 380.973 78.0061 376.225 80.6233 380.565C82.4363 383.47 81.4532 381.282 79.0785 377.289C77.7378 374.728 78.6955 376.225 79.7552 378.018C88.6537 394.272 96.7353 409.563 104 422.631Z" fill="#EFA142"/>
<path d="M121.529 320.685C122.588 319.737 125.359 318.777 125.474 319.685C125.308 318.788 125.295 318.777 127.044 317.69C127.146 318.291 128.806 317.69 129.891 317.484C128.298 317.297 126.683 317.432 125.142 317.881C124.184 318.829 122.435 319.161 120.686 319.569C118.937 319.979 117.226 320.529 116.486 321.63C118.082 321.26 119.818 321.593 121.529 320.685Z" fill="white"/>
<path d="M132.138 322.179L132.393 321.771C131.116 322.142 129.993 322.587 128.818 323.046C129.495 322.538 131.934 321.757 132.138 322.179Z" fill="white"/>
<path d="M144.076 319.863C143.769 320.542 145.697 320.849 145.684 321.465C145.557 320.184 148.646 321.066 150.281 320.912L150.944 319.889C149.336 319.146 145.263 319.504 141.829 319.698C142.582 319.747 143.322 319.788 144.076 319.863Z" fill="#EFA142"/>
<path d="M147.191 320.503L148.25 319.826C147.344 319.979 145.263 320.208 147.191 320.503Z" fill="white"/>
<path d="M144.714 316.984C141.969 316.984 146.386 317.369 143.641 317.687C144.548 317.482 145.62 317.418 144.714 316.984Z" fill="white"/>
<path d="M156.102 318.992C154.187 319.119 152.272 319.209 150.37 319.403C151.161 319.556 151.953 319.683 152.732 319.848L156.102 318.992Z" fill="#EFA142"/>
<path d="M156.345 321.169C155.604 321.169 154.455 320.747 155.515 320.414C157.519 321.27 158.822 320.221 160.622 320.975L158.809 321.233C159.013 322.051 162.639 320.568 162.435 322.039C164.988 321.155 160.647 320.68 163.865 320.131C161.295 320.128 158.731 319.888 156.205 319.414C156.886 319.671 157.592 319.859 158.311 319.978C156.524 319.978 154.098 320.348 152.004 320.414C153.064 321.438 154.609 320.568 156.345 321.169Z" fill="#EFA142"/>
<path d="M165.358 321.836C167.273 322.041 170.222 322.295 170.835 321.26C168.869 320.326 168.434 321.26 167.477 321.604C166.915 321.376 165 321.156 165.817 320.645C166.085 320.902 164.515 321.35 165.358 321.836Z" fill="#EFA142"/>
<path d="M172.878 322.537L174.359 321.718L173.453 321.796V321.105C173.116 321.53 172.672 321.857 172.167 322.054C171.662 322.247 171.114 322.305 170.58 322.219C171.486 322.869 171.882 322.268 172.878 322.537Z" fill="#EFA142"/>
<path d="M173.746 317.932C174.879 318.394 176.127 318.495 177.321 318.224C175.227 318.096 172.214 317.764 171.601 318.111L171.78 317.958C170.607 318.134 169.453 318.42 168.333 318.813C170.516 318.328 174.231 319.692 173.746 317.932Z" fill="#EFA142"/>
<path d="M178.853 322.87L175.929 322.32L176.618 322.664L178.853 322.87Z" fill="#EFA142"/>
<path d="M175.585 319.733C177.934 320.092 174.308 318.866 176.58 319.109C177.193 319.109 173.312 318.803 173.095 319.236C173.631 319.468 175.406 318.918 175.585 319.733Z" fill="#EFA142"/>
<path d="M186.794 324.023L187.304 323.586C189.628 324.15 192.858 323.716 194.518 324.766C194.147 324.188 195.565 323.676 193.496 323.395C193.164 323.664 192.424 323.612 192.513 323.985C191.632 323.818 191.849 323.421 191.236 323.216C189.679 323.638 187.406 323.063 186.13 323.433C186.528 323.404 186.927 323.456 187.304 323.586C184.649 324.228 184.38 322.141 183.129 323.433C184.074 323.089 185.568 324.15 186.794 324.023Z" fill="#EFA142"/>
<path d="M186.845 320.772L184.802 320.402C185.492 319.838 187.356 320.607 187.7 320.069C187.598 319.685 185.569 319.3 186.347 319.109C185.977 320.581 183.526 318.904 184.458 320.685C181.764 320.619 183.717 319.685 180.883 319.479L180.015 320.211C183.194 320.121 183.679 320.887 186.845 320.772Z" fill="#EFA142"/>
<path d="M194.773 321.655L195.756 322.178L195.245 321.487C199.816 321.73 202.459 324.317 205.28 323.919C206.959 323.572 208.682 323.485 210.387 323.664C212.12 323.812 213.863 323.812 215.596 323.664C217.294 323.025 213.91 323.574 213.706 323.254C214.128 322.32 215.43 323.626 216.17 322.779C216.336 322.166 212.493 322.357 210.961 321.999C209.685 322.14 209.685 322.334 209.289 322.756C208.944 322.372 207.591 322.268 207.246 321.872C204.514 322.435 203.084 321.348 200.378 321.872C199.548 321.244 202.395 321.872 201.501 321.718H200.033L200.186 321.82C197.833 322.129 195.44 321.857 193.215 321.027C194.211 321.322 194.888 321.86 193.675 321.987L192.743 321.181L190.087 322.039C192.13 321.386 194.313 322.947 194.773 321.655Z" fill="#EFA142"/>
<path d="M192.015 320.131C188.977 319.466 192.296 321.256 188.964 320.617L192.513 320.845L192.015 320.131Z" fill="#EFA142"/>
<path d="M206.621 322.537L208.153 322.933C207.297 322.092 204.936 323.292 206.621 322.537Z" fill="white"/>
<path d="M212.238 322.373L211.472 323.188L212.877 322.665L212.238 322.373Z" fill="white"/>
<path d="M217.435 322.869C218.533 322.384 217.141 322.219 215.826 322.436C217.039 322.346 217.677 322.6 217.435 322.869Z" fill="#EFA142"/>
<path d="M226.078 322.795C223.524 323.356 228.389 322.462 226.639 323.408C226.933 323.064 228.159 322.451 226.078 322.795Z" fill="white"/>
<path d="M234.658 321.746C233.764 322.18 233.381 322.217 233.215 322.128C233.683 321.957 234.166 321.827 234.658 321.746Z" fill="#EFA142"/>
<path d="M139.645 321.668C139.255 321.766 138.858 321.836 138.458 321.873L139.633 321.668H139.645Z" fill="#EFA142"/>
<path d="M138.101 320.3C140.169 319.325 140.539 321.745 143.923 320.964C142.544 321.219 141.101 321.45 139.633 321.667C137.565 320.785 141.101 320.901 138.101 320.3Z" fill="#EFA142"/>
<path d="M97.2716 366.781L96.9141 366.064C97.0074 366.261 97.1141 366.449 97.2335 366.628L97.2716 366.781Z" fill="#EFA142"/>
<path d="M111.443 423.438C112.743 420.775 113.762 417.982 114.482 415.106C114.29 415.106 114.801 413.608 114.648 413.353C114.201 415.273 115.12 411.677 115.35 407.875C115.58 404.073 115.197 400.196 115.209 401.757C115.286 402.063 115.375 402.373 115.426 402.679C115.299 402.358 115.133 402.04 114.992 401.731C114.992 400.797 114.992 399.672 114.992 398.635C115.009 397.767 114.884 396.903 114.622 396.076C115.115 398.635 115.351 401.237 115.324 403.844C115.313 406.371 115.151 408.898 114.839 411.408C115.06 407.935 115.06 404.452 114.839 400.976C114.545 397.001 113.685 393.089 112.286 389.357L112.528 388.998C111.985 387.859 111.353 386.763 110.639 385.723C110.039 384.763 109.362 383.916 108.724 382.907L108.915 382.216C109.492 383.442 110.166 384.618 110.932 385.734C110.188 383.843 109.336 381.999 108.379 380.206C107.843 380.591 109.094 382.126 107.307 379.706C107.115 378.824 108.736 380.192 107.307 377.928C105.8 375.022 105.251 376.136 103.681 373.756L104.485 375.523C103.636 374.47 102.968 373.285 102.506 372.016C103.094 373.065 105.06 375.393 105.596 374.959C104.83 374.025 103.668 371.605 103.042 370.723L103.821 371.004C103.655 369.723 102.685 369.584 102.391 368.098C101.472 367.049 102.111 369.2 101.562 368.636C101.224 367.381 100.657 366.202 99.8891 365.155C99.0973 366.268 101.6 367.818 101.498 369.813C101.127 369.046 100.77 368.277 100.425 367.497C98.6507 366.641 102.43 371.041 101.281 370.746C100.855 370.457 100.498 370.079 100.231 369.636C99.9648 369.194 99.7957 368.7 99.7359 368.188C99.6864 367.682 99.5141 367.196 99.2335 366.771C98.9531 366.349 98.5733 365.999 98.1272 365.756C98.357 367.037 100.272 370.35 99.6847 370.108C99.3656 368.74 98.1654 368.292 97.1314 366.627C96.927 365.86 96.7611 365.077 96.6206 364.285C95.8673 363.516 96.1865 364.285 96.2888 365.065C95.8673 363.362 95.012 361.162 94.3738 358.667C93.6829 356.059 93.6479 353.319 94.2714 350.693C94.4504 347.672 93.7352 350.245 93.4672 348.785C94.4758 347.302 94.5397 344.512 95.1652 342.899C95.4077 342.465 95.012 341.274 94.527 341.618C94.1174 343.041 93.8144 344.492 93.6205 345.958C93.2629 345.637 92.3437 346.073 92.1905 347.713C93.0458 347.328 92.4969 348.811 92.1905 350.566C91.8841 352.318 91.7563 354.406 92.6374 354.406H91.8586C92.1708 356.32 92.6666 358.202 93.3395 360.023V359.832C93.5083 360.729 93.8231 361.593 94.2714 362.391C94.9227 363.785 95.7526 365.461 96.2888 366.794C95.7699 366.005 95.3172 365.175 94.9354 364.311C94.5012 363.415 94.1821 362.966 94.3738 364.49C93.6109 363.16 93.0634 361.717 92.7521 360.214C92.3309 358.372 92.0118 356.262 91.7181 354.047L91.2712 354.943C90.7321 352.324 90.8111 349.615 91.501 347.033C92.2006 344.42 93.1233 341.873 94.2587 339.418C94.2587 339.993 94.2587 340.545 94.3353 341.106C95.28 339.597 96.8123 337.984 97.1441 336.295C96.0844 338.088 96.2758 336.949 96.1865 336.437C96.9051 334.882 97.8422 333.436 98.9699 332.15C100.246 330.704 101.6 329.229 102.979 327.798C102.979 327.798 102.979 328.067 103.144 328.041C104.051 327.003 104.996 326.032 105.979 325.084C107.113 324.341 108.44 323.944 109.796 323.944C110.307 323.496 111.788 322.667 110.996 322.562C110.688 322.678 110.396 322.834 110.128 323.025C111.405 321.233 111.405 322.536 113.409 320.912C112.03 322.435 114.418 321.629 114.533 322.435C116.946 320.949 114.201 321.053 114.367 320.594C117.737 319.567 118.375 320.067 121.631 319.119C121.631 318.596 119.244 319.567 118.797 319.119C119.565 318.995 120.297 318.7 120.942 318.263C120.24 318.365 119.524 318.469 118.822 318.596C122.389 317.931 125.918 317.078 129.393 316.037L129.049 315.858C129.84 315.69 130.632 315.563 131.411 315.447L130.734 316.485C131.947 316.037 133.428 316.624 133.989 315.794H133.517C134.028 315.627 134.539 315.421 135.062 315.268C134.551 315.627 134.053 316.023 133.568 316.407C134.777 316.286 135.951 315.933 137.028 315.369C138.416 314.687 139.927 314.291 141.471 314.207C141.867 314.794 140.462 314.999 138.918 315.28C137.373 315.563 135.713 315.997 135.611 316.803C136.804 317.032 138.037 316.928 139.173 316.497C139.007 316.086 138.228 316.164 137.45 316.24C140.233 315.063 144.561 316.24 146.297 314.756L144.127 314.32C146.68 314.065 148.276 315.679 149.08 314.794C148.442 315.32 147.803 315.817 147.165 316.37C149.719 315.549 152.872 315.728 155.208 315.242C155.285 314.346 151.838 315.167 152.004 314.999L153.127 314.372C156.766 315.025 154.174 314.91 158.54 315.653V315.051C159.97 316.011 163.954 314.577 162.37 316.049L161.209 315.601L161.273 316.318C162.945 316.318 164.643 316.216 166.316 316.216C165.792 316.702 168.205 316.754 167.516 317.393L169.392 316.933C170.158 317.98 165.933 317.815 165.69 318.57C165.69 319.029 166.584 319.044 166.967 319.006C164.72 319.567 163.749 317.726 161.541 317.584L160.417 318.148L160.519 317.266C159.738 317.379 159.012 317.731 158.438 318.275C156.306 316.997 153.893 318.338 150.6 318.058C153.357 317.535 148.837 317.199 149.323 316.957C147.791 316.957 144.114 318.685 142.761 317.648C141.841 317.277 144.599 316.867 142.454 316.818C141.075 317.035 140.169 317.572 141.088 317.942C138.062 318.417 134.411 318.685 131.092 319.287L131.781 318.558C130.857 318.535 129.938 318.703 129.082 319.05C128.225 319.397 127.449 319.917 126.802 320.579C126.457 320.4 126.329 320.579 126.572 320.195C126.002 320.128 125.423 320.189 124.879 320.374C124.336 320.562 123.841 320.865 123.431 321.27C122.214 322.265 120.819 323.016 119.32 323.485C119.857 324.187 121.695 323.6 122.895 322.794V323.829C126.457 322.742 130.555 321.655 133.415 320.669L132.138 321.591C134.909 322.499 133.798 320.004 136.428 321.181C138.19 320.631 135.062 320.836 136.428 320.273C137.705 320.4 136.313 321.976 138.42 321.796L135.432 322.308L132.381 322.909C130.326 323.306 128.257 323.806 126.202 324.381C122.136 325.459 118.217 327.032 114.533 329.065C114.533 329.308 114.89 329.143 115.299 329.065C113.98 330.152 112.566 331.115 111.073 331.944C108.65 333.459 106.428 335.272 104.459 337.345C102.555 339.346 101.024 341.673 99.9399 344.217C99.1103 346.316 98.9698 347.892 99.4803 348.172C99.0719 348.493 99.008 347.149 98.6634 348.811C98.7782 348.991 98.8932 349.453 99.289 349.132C98.272 351.338 97.9902 353.816 98.4845 356.195C98.9857 358.82 99.6639 361.408 100.515 363.941C100.77 363.695 101.408 364.681 101.625 364.591C101.625 366.589 103.898 368.968 104.421 370.671V370.006L107.243 374.754C107.421 374.832 107.051 374.178 106.86 373.768C107.6 374.742 107.421 375.164 107.243 375.419C107.868 376.008 108.52 376.595 109.069 377.223C110.345 380.692 112.299 384.39 113.665 388.472C115.115 392.58 115.833 396.914 115.784 401.271C116.174 402.723 116.308 404.229 116.18 405.724C116.18 405.38 116.282 405.021 116.32 404.663C116.397 406.863 116.192 404.79 116.141 406.646C116.141 407.927 116.473 407.057 116.512 405.368C116.665 404.293 116.754 404.958 116.716 405.724C116.025 411.896 114.24 417.895 111.443 423.438Z" fill="#EFA142"/>
<path d="M255.059 309.831C254.523 310.329 257.025 307.669 255.736 308.898C255.225 309.369 254.689 309.933 254.089 310.459L252.122 312.069L251.088 312.928L249.952 313.72L247.603 315.371C244.465 317.435 241.075 319.089 237.517 320.286C235.768 320.734 235.296 320.812 233.687 321.182C233.68 321.223 233.686 321.266 233.704 321.301C233.723 321.338 233.752 321.37 233.789 321.387C231.715 322.151 229.58 322.735 227.405 323.128C226.908 323.333 226.614 323.793 227.572 323.475C226.416 323.868 225.205 324.082 223.984 324.099C223.069 324.047 222.151 324.137 221.265 324.368C222.631 324.368 219.988 324.996 221.609 324.92C218.737 325.533 218.813 323.96 216.503 324.05C216.375 324.189 216.247 324.331 216.707 324.305C214.153 323.972 209.123 325.394 208.791 324.203L207.808 324.741C206.992 324.299 206.091 324.036 205.166 323.972C203.991 324.177 205.166 324.435 204.783 324.625C204.285 324.14 201.106 324.383 199.676 323.576C199.612 322.758 202.229 324.767 203.646 323.998C203.646 323.83 203.493 323.793 203.199 323.781C205.063 323.781 206.825 323.987 208.523 324.114C210.221 324.241 211.843 324.42 213.426 324.51C216.529 324.767 219.654 324.527 222.682 323.793C223.21 323.874 223.75 323.827 224.257 323.657C224.763 323.483 225.221 323.194 225.593 322.807C225.018 322.807 223.946 322.923 223.039 323.064C222.133 323.206 221.316 323.434 221.341 323.882L219.35 323.614C218.622 323.755 218.532 322.821 218.201 322.694C219.567 322.694 220.946 321.555 219.107 321.413C222.605 320.85 218.226 323.498 221.316 322.807L221.686 322.116C221.137 322.538 223.895 322.437 224.865 322H224.418C229.093 321.315 233.676 320.101 238.079 318.381C242.691 316.62 247.075 314.313 251.14 311.508C252.497 310.817 253.738 309.921 254.816 308.846C255.442 308.27 256.093 307.706 256.642 307.206C257.191 306.709 257.663 306.197 258.059 305.824C258.761 305.081 257.012 306.836 258.378 305.428C258.605 305.174 258.849 304.934 259.106 304.711L259.732 304.058C259.974 303.803 259.795 303.968 259.068 304.853C258.34 305.735 257.255 307.412 255.059 309.831Z" fill="#EFA142"/>
<path d="M5.89863 275.058C5.89863 273.023 7.06043 268.864 7.89027 269.26C7.06043 268.864 7.06043 268.876 7.52004 265.882C8.03073 266.163 8.9244 263.68 9.56276 262.119C8.13609 264.069 7.01658 266.227 6.24334 268.518C6.22753 269.605 6.03342 270.681 5.66883 271.705C5.31135 272.882 4.89004 274.149 4.39213 275.403C4.01632 276.594 3.70101 277.803 3.44738 279.025C3.25094 280.061 3.25094 281.125 3.44738 282.161C4.12402 279.934 5.47733 277.912 5.89863 275.058Z" fill="white"/>
<path d="M14.9756 262.387L14.8607 261.785C14.1713 263.564 13.584 265.381 13.0095 267.173C13.2136 266.201 13.4954 265.246 13.8521 264.319C14.2607 263.308 14.7458 262.387 14.9756 262.387Z" fill="white"/>
<path d="M24.0781 246.454C24.2569 247.247 26.4017 245.277 26.8358 245.737C25.7506 244.931 29.5808 242.141 31.2661 240.349V238.916C28.955 240.029 24.8824 244.752 21.729 248.924C22.495 248.067 23.2993 247.273 24.0781 246.454Z" fill="#EFA142"/>
<path d="M27.7046 243.396L28.343 241.758C27.5004 242.858 25.5343 245.303 27.7046 243.396Z" fill="white"/>
<path d="M22.6358 243.716C19.9165 246.928 24.5636 242.027 22.0741 245.456C22.8018 244.215 23.8742 242.973 22.6358 243.716Z" fill="white"/>
<path d="M36.5522 233.029C34.3663 234.963 32.2865 237.013 30.3218 239.172C31.2667 238.417 32.2498 237.714 33.2456 237.035C34.2796 235.653 35.4286 234.36 36.5522 233.029Z" fill="#EFA142"/>
<path d="M38.3008 234.448C37.4201 235.114 35.8496 235.971 36.8584 234.666C38.0757 234.095 39.1926 233.33 40.165 232.401C41.1204 231.546 42.2179 230.866 43.4077 230.391C42.7056 230.98 42.0289 231.607 41.3522 232.209C41.7479 232.452 42.7695 231.454 43.8292 230.609C44.8889 229.764 45.974 229.06 46.2931 229.726C48.9615 227 43.1906 230.033 47.0207 227.025C43.1906 229.508 40.2416 231.146 37.0243 233.297C37.9866 232.861 38.9206 232.366 39.8202 231.812C37.3524 233.832 35.0156 236.008 32.824 238.326C33.8036 238.014 34.6844 237.449 35.3773 236.688C36.2445 235.81 37.2284 235.057 38.3008 234.448Z" fill="#EFA142"/>
<path d="M49.7912 227.27C52.3445 225.99 56.4556 224.314 56.8256 223.047C53.6467 223.405 53.5317 224.583 52.4593 225.517C51.5785 225.721 48.9483 226.976 49.7401 225.926C50.187 225.952 48.3867 227.488 49.7912 227.27Z" fill="#EFA142"/>
<path d="M60.2218 223.071C60.7965 222.56 61.3708 222.022 61.9709 221.549C61.5344 221.701 61.1081 221.88 60.6941 222.086L60.3369 221.484C60.1172 221.873 59.8466 222.23 59.5324 222.547C58.7548 223.255 57.8368 223.792 56.8386 224.121C58.4218 224.07 58.7282 223.314 60.2218 223.071Z" fill="#EFA142"/>
<path d="M59.5069 218.35C60.4203 218.289 61.3239 218.126 62.2009 217.863C63.0305 217.594 63.8732 217.236 65.0222 216.891C63.3881 217.223 61.4476 217.799 59.7878 218.298C58.6041 218.631 57.4704 219.121 56.4174 219.757L56.6087 219.501C56.6087 219.501 55.9193 219.898 55.0001 220.461C53.982 221.069 53.0206 221.767 52.1277 222.547C53.8034 221.545 55.5901 220.741 57.4513 220.154C59.0857 219.565 60.222 219.028 59.5069 218.35Z" fill="#EFA142"/>
<path d="M55.4214 219.627C56.1235 219.167 56.8129 218.707 57.5535 218.35C56.8129 218.707 56.1747 219.167 55.4214 219.627Z" fill="#EFA142"/>
<path d="M68.8012 220.73C67.333 220.846 65.8776 221.114 64.4094 221.318C64.7794 221.318 65.1627 221.318 65.5327 221.318C66.6181 221.152 67.6648 220.871 68.8012 220.73Z" fill="#EFA142"/>
<path d="M62.9541 219.079C66.5798 218.298 60.7965 218.836 64.2306 218.017C65.1244 217.645 59.2133 219.297 59.124 219.911C60.0048 219.757 62.3794 218.401 62.9541 219.079Z" fill="#EFA142"/>
<path d="M71.6487 220.383C72.8234 220.051 74.0106 219.642 75.2235 219.387C74.0491 219.642 72.7723 220.051 71.6487 220.383Z" fill="#EFA142"/>
<path d="M80.6618 220.436L81.4024 219.976C84.8622 220.487 89.6627 220.679 91.948 222.177C91.4757 221.511 93.6459 221.345 90.6712 220.551C90.135 220.756 89.0498 220.551 89.1646 220.935C87.8881 220.577 88.2072 220.219 87.3519 219.95C85.0281 220.103 81.5429 219.374 79.6914 219.873C80.2806 219.816 80.8749 219.851 81.4536 219.976C77.6232 220.692 76.8829 218.696 75.2358 220.206C76.0785 220.033 76.9468 220.033 77.7894 220.206C78.7335 220.403 79.6984 220.481 80.6618 220.436Z" fill="#EFA142"/>
<path d="M80.4322 217.185C79.347 217.108 78.2616 216.967 77.1764 216.955C78.185 216.276 81.1597 216.955 81.7217 216.456C81.5557 216.033 78.2489 215.777 79.4618 215.547C79.2447 216.302 78.1214 216.251 77.2658 216.315C76.4104 216.379 75.8233 216.468 76.6914 217.287C72.5037 217.62 75.3507 216.366 70.8824 216.814C70.4994 217.121 70.1164 217.467 69.7461 217.786C70.741 217.553 71.7528 217.399 72.772 217.326C73.5351 217.245 74.3032 217.219 75.07 217.249C76.6021 217.275 77.9936 217.275 80.4322 217.185Z" fill="#EFA142"/>
<path d="M92.7521 219.156L94.1563 219.975L93.4926 219.143C96.3942 219.855 99.1505 221.068 101.638 222.726C103.458 224.045 105.458 225.097 107.575 225.849C112.809 226.988 116.895 229.996 121.95 231.877C124.504 232.427 119.716 230.674 119.576 230.303C120.61 229.74 121.759 231.711 123.176 231.48C123.725 231.032 118.35 228.716 116.371 227.423C114.469 226.732 114.405 226.95 113.69 227.078C113.371 226.515 111.519 225.619 111.136 225.056C107.026 224.019 105.327 222.176 101.153 221.421C100.093 220.435 104.153 222.33 102.876 221.792C102.149 221.536 101.421 221.319 100.693 221.075L100.897 221.242C98.9733 220.898 97.0814 220.393 95.2418 219.732C93.2501 219.117 91.4117 218.452 90.4286 218.029C91.9606 218.554 92.9819 219.309 91.0541 219.092L89.688 218.08C88.3092 218.08 86.9049 218.337 85.5515 218.49C87.0601 218.429 88.5667 218.65 89.9944 219.143C91.3221 219.476 92.3179 219.706 92.7521 219.156Z" fill="#EFA142"/>
<path d="M88.6032 216.967C83.8155 215.882 89.0371 218.065 83.7773 217.069C84.722 217.069 85.6412 217.248 86.5732 217.376C87.5051 217.504 88.4243 217.593 89.3435 217.797L88.6032 216.967Z" fill="#EFA142"/>
<path d="M109.975 225.273L111.979 226.553C111.072 225.273 107.242 225.03 109.975 225.273Z" fill="white"/>
<path d="M117.916 228.574L116.486 228.817L118.669 229.251L117.916 228.574Z" fill="white"/>
<path d="M124.81 232.389C126.559 232.696 124.733 231.633 122.831 230.955C124.504 231.672 125.27 232.312 124.81 232.389Z" fill="#EFA142"/>
<path d="M136.607 237.879C132.777 236.781 139.952 239.003 137.041 238.747C137.602 238.633 139.633 238.862 136.607 237.879Z" fill="white"/>
<path d="M149.118 241.615C148.352 241.681 147.58 241.558 146.872 241.258C147.628 241.325 148.379 241.444 149.118 241.615Z" fill="#EFA142"/>
<path d="M102.608 224.735L101.332 224.275C101.765 224.416 102.136 224.582 102.608 224.735Z" fill="#EFA142"/>
<path d="M103.413 225.043L102.57 224.736C102.928 224.838 103.208 224.953 103.413 225.043Z" fill="#EFA142"/>
<path d="M21.1423 252.865C20.772 253.531 20.4656 254.03 20.1975 254.414L21.1295 252.878L21.1423 252.865Z" fill="#EFA142"/>
<path d="M18.6907 253.786C19.1355 252.604 20.0116 251.634 21.142 251.073C22.6051 250.144 23.8332 248.886 24.7295 247.4C23.5166 249.128 22.3165 250.971 21.1292 252.878C18.5502 254.708 21.9335 250.6 18.6907 253.786Z" fill="#EFA142"/>
<path d="M50.5952 223.636L50.7496 223.534C51.0713 223.353 50.8912 223.456 50.5952 223.636Z" fill="#EFA142"/>
<path d="M32.4794 372.913C32.0123 372.488 31.5174 372.095 30.9983 371.733L31.4325 372.271C30.6367 371.626 29.9131 370.898 29.2749 370.097C30.4748 371.505 30.6537 371.375 31.011 371.184C30.36 370.415 29.6706 369.686 29.0833 368.868C30.1814 368.726 30.7303 370.877 32.4794 372.913Z" fill="#EFA142"/>
<path d="M23.9636 361.754C24.5254 362.24 26.2106 364.723 25.3808 363.032C25.7804 363.428 26.1475 363.856 26.4787 364.313C25.1254 362.853 25.6872 364.772 23.9636 361.754Z" fill="#EFA142"/>
<path d="M26.4788 364.363C26.6447 364.54 26.8235 364.745 27.0405 365.025C26.8397 364.817 26.6521 364.595 26.4788 364.363Z" fill="#EFA142"/>
<path d="M21.0401 356.286L20.4272 355.303C20.606 355.595 20.7847 355.838 20.9507 356.08L21.0401 356.286Z" fill="#EFA142"/>
<path d="M83.9813 425.001C82.7768 420.672 80.9259 416.553 78.4915 412.78C78.4915 412.97 77.2147 410.871 76.8317 410.73C75.1967 408.492 73.4274 406.355 71.5334 404.332C67.7034 400.122 63.1839 396.32 64.8691 397.934L66.0181 398.778L64.7413 398.061C62.7945 395.947 60.695 393.978 58.46 392.174C58.3068 391.955 62.8902 395.846 67.1671 400.033C69.9005 402.687 72.4873 405.488 74.9166 408.426C73.9023 407.44 72.9391 406.402 72.0312 405.318C69.4146 402.507 66.6575 399.836 63.7712 397.306C60.5537 394.438 57.1832 391.622 54.5918 389.46C52 387.297 50.187 385.773 49.9699 385.684L49.8933 385.16C46.3951 382.602 44.0462 380.962 41.148 378.632C41.0587 378.337 40.9949 378.019 40.9182 377.698C42.3514 379.19 43.9199 380.543 45.6037 381.743C43.8545 380.118 42.8844 379.106 42.0034 378.198C41.1223 377.288 40.4459 376.394 39.1691 375.114C38.7734 375.637 41.0842 377.597 37.6625 374.498C36.9731 373.347 39.5521 375.114 36.7179 372.182C35.8715 370.973 34.8268 369.918 33.6284 369.06C32.5114 368.351 31.537 367.441 30.7557 366.374C31.2792 367.192 31.7899 368.036 32.3643 368.817C30.9583 367.331 29.7486 365.671 28.764 363.876C29.811 365.347 32.939 368.753 33.4367 368.163C32.1599 366.885 29.9897 363.442 28.9811 362.213L29.9769 362.687C29.3257 361.022 28.1895 360.614 27.3597 358.527C25.9553 356.992 27.3597 360.013 26.5936 359.166C25.7614 357.394 24.729 355.726 23.5168 354.187C22.9933 355.7 26.3766 358.027 26.9128 360.779L24.9339 357.489C22.6359 356.122 28.3938 362.609 26.9639 362.034C24.4105 360.268 24.4105 356.506 21.8571 354.982C22.4571 356.709 25.8021 361.381 25.0233 361.022C24.6208 360.149 24.0528 359.363 23.3508 358.706C22.497 357.937 21.7267 357.079 21.0528 356.148L19.7761 352.973C18.6909 351.95 19.2909 352.973 19.6867 354.008C18.6015 351.744 17.0184 348.787 15.2821 345.615C13.5294 342.368 12.1503 338.934 11.1711 335.375C9.44757 331.535 10.4306 335.08 9.29437 333.469C9.14186 332.079 8.79814 330.72 8.273 329.425C7.73679 328.005 7.09845 326.583 6.74097 325.47C6.62606 324.79 5.46426 323.767 5.37492 324.51C5.66245 325.435 5.99912 326.346 6.38348 327.236L7.55806 329.974C7.06015 329.835 6.65159 330.885 7.44316 332.868C7.90277 331.934 8.45175 333.955 9.14117 336.181C9.43783 337.26 9.7959 338.318 10.2136 339.356C10.6604 340.214 11.1073 340.764 11.4903 340.7L10.7498 340.929L12.6648 344.297L13.6096 345.948L14.631 347.546V347.304C15.1652 348.417 15.7975 349.478 16.5205 350.478L17.4014 351.898L18.3717 353.369C19.0228 354.355 19.6484 355.353 20.1208 356.275C19.2782 355.393 15.8438 349.339 17.3248 353.216C15.3204 350.695 13.1883 345.575 10.5328 340.521V341.735C10.1242 341.096 9.71568 340.457 9.33267 339.7C8.94967 338.945 8.64326 338.217 8.3113 337.436C7.66019 335.863 7.0346 334.224 6.43456 332.521C5.40044 329.078 4.39184 325.559 3.5237 322.284L4.80037 324.024C4.64827 321.494 4.14111 318.999 3.2939 316.614C3.85563 319.404 3.15344 318.06 2.73214 317.611C2.06964 315.405 1.58297 313.15 1.2767 310.866C1.13626 309.588 0.983058 308.308 0.84262 306.926L0.574515 304.916C0.485145 304.251 0.459612 303.636 0.383011 302.919C0.383011 302.919 0.561747 303.161 0.676649 302.919L0 297.353C0.110784 295.584 0.543464 293.846 1.2767 292.233C1.2767 291.747 1.2767 290.952 1.2001 290.287C1.12349 289.622 1.11073 289.29 0.817087 289.723C0.715456 290.177 0.676791 290.643 0.702185 291.108C0.374535 290.29 0.347384 289.382 0.625583 288.547C0.947246 287.575 1.06037 286.546 0.957525 285.527C1.3916 288.343 2.13209 284.823 2.85981 285.258C3.01301 281.15 1.58311 284.67 1.25116 284.119C2.42573 279.166 3.2556 278.642 4.69825 273.881C4.50674 273.663 4.18756 274.508 3.83011 275.442C3.47262 276.376 3.16622 277.413 2.84704 277.554C3.07534 276.87 3.26291 276.174 3.4088 275.468C3.54498 275.055 3.60553 274.622 3.58753 274.188C3.16622 275.148 2.80874 276.146 2.45126 277.131C4.23864 272.076 5.98773 267.341 8.04319 261.774L7.66019 262.132C8.13257 261.006 8.71986 259.944 9.25607 258.843L9.48588 260.417C10.1115 258.549 11.835 257.102 11.6946 255.848L11.2988 256.437C11.618 255.682 11.8988 254.901 12.2435 254.172C12.052 255.029 11.9499 255.925 11.7967 256.731C13.5841 254.236 14.2096 249.577 17.4142 245.559C18.244 245.495 16.9929 247.299 15.78 249.398C14.5671 251.497 13.3798 253.788 13.9032 254.517C14.9374 253.238 16.6992 251.036 16.9163 249.974C16.4439 249.897 15.78 250.883 15.1161 251.881C15.6031 250.774 16.193 249.716 16.878 248.72C17.6184 247.683 18.41 246.634 19.2143 245.648C20.0186 244.663 20.7719 243.716 21.3975 242.846C21.9638 242.113 22.396 241.285 22.6742 240.401L20.1208 242.589C22.5082 239.492 25.4574 238.865 25.6872 237.304L24.7424 240.567C26.7596 237.163 30.5386 233.874 33.0283 231.148C32.7858 230.777 31.7515 231.609 30.8196 232.53C29.8876 233.452 29.0704 234.463 29.1086 234.309L29.9897 232.658C30.997 231.846 32.0989 231.158 33.2708 230.61C33.7816 230.355 34.4325 230.022 37.3561 228.192L37.0624 227.667C39.4244 227.04 43.8037 222.381 42.6416 224.941L40.8544 225.606L41.3779 226.131C42.4503 225.363 43.5227 224.582 44.659 223.904C45.7953 223.226 46.9059 222.471 48.0803 221.844C47.608 222.637 50.9912 220.833 50.3657 221.844L52.8554 220.154C53.6595 220.346 52.5362 221.153 51.2467 221.997C49.9572 222.842 48.5145 223.879 48.5145 224.263C48.8209 224.634 49.9827 223.994 50.5446 223.636C49.3962 224.509 48.0644 225.109 46.6506 225.389C45.2079 225.624 43.8196 226.118 42.5523 226.848L41.4417 228.281L41.033 227.488C40.184 228.224 39.512 229.142 39.0671 230.175C35.62 231.186 33.6154 234.565 29.798 237.854C32.4921 234.54 27.2447 239.134 27.6022 238.456C26.4804 239.789 25.4604 241.205 24.5509 242.692C23.4402 244.343 22.3422 245.917 21.2953 246.365C20.108 247.158 22.572 243.703 20.3761 246.135C19.1633 247.888 18.7292 249.372 19.8654 248.515C16.9692 252.74 14.3465 257.148 12.0137 261.71V260.34C11.5811 260.992 11.2011 261.676 10.8775 262.388C10.604 263.087 10.3821 263.806 10.2136 264.538C9.90996 265.695 9.7597 266.887 9.76676 268.083C9.38372 268.403 9.46032 268.71 9.30712 268.083C6.97077 271.615 8.5794 273.407 6.85587 279.793C7.78786 279.601 8.47728 276.748 8.71986 274.674L9.48588 275.468C10.2391 272.742 11.2477 269.913 12.2052 267.2C13.1628 264.487 14.1969 261.953 15.0395 259.777C14.8991 260.507 14.8097 261.262 14.7076 261.991C15.1636 261.635 15.5418 261.189 15.8185 260.681C16.0953 260.172 16.2647 259.612 16.3162 259.035C16.3162 258.305 16.4439 257.576 18.0525 256.373C19.176 253.813 16.5971 257.819 17.312 255.836C18.5887 254.312 18.4611 257.115 20.2485 254.428C16.9958 259.844 14.3091 265.582 12.2308 271.552C11.191 274.619 10.3383 277.748 9.67738 280.92C9.00071 284.081 8.77091 287.319 8.40068 290.417C8.55388 290.66 8.69431 290.007 8.84751 289.368C8.92686 292.019 8.84158 294.673 8.59218 297.313C8.59218 299.258 8.59218 301.435 8.59218 303.714C8.59218 305.992 8.84751 308.36 8.97519 310.728C9.10287 313.095 9.588 315.397 9.90718 317.559C10.2264 319.725 10.8264 321.694 11.2605 323.408C12.2563 326.788 13.2521 329.014 13.8139 329.104C13.6862 329.809 12.7542 327.979 13.5713 330.526C13.8011 330.705 14.2479 331.266 14.3246 330.526C14.6757 332.319 15.1579 334.085 15.7672 335.811C16.38 337.653 17.312 339.457 18.1547 341.354C18.9973 343.247 20.057 345.063 20.9889 346.957C21.9209 348.853 22.9167 350.695 23.8104 352.551C24.0019 352.219 25.0871 353.69 25.2786 353.586C25.8665 355.231 26.73 356.763 27.832 358.117C28.9045 359.666 29.9769 361.164 30.6279 362.314L30.4108 361.433C32.0706 363.621 33.5899 365.926 35.3902 368.01C35.6327 368.126 34.9306 367.255 34.5476 366.732C35.8241 368.01 35.8241 368.574 35.6582 368.895L38.3011 371.312C41.8343 376.047 45.9187 380.344 50.468 384.111C55.2173 388.219 60.2603 392.391 64.6775 396.91C66.5196 398.2 68.2075 399.697 69.7077 401.374C69.3759 400.952 69.031 400.556 68.6865 400.16C71.0611 402.4 68.6865 400.391 70.6781 402.36C72.0442 403.641 71.3291 402.539 69.5164 400.709C68.4821 399.431 69.2354 400.108 70.0396 400.94C73.3632 404.586 76.3024 408.567 78.8106 412.817C81.0427 416.642 82.7803 420.736 83.9813 425.001Z" fill="#EFA142"/>
<path d="M183.347 232.773C182.874 233.093 183.793 232.44 184.368 231.724C184.942 231.007 185.466 230.521 184.496 231.468C180.585 235.09 175.912 237.784 170.822 239.351C165.379 241.098 159.664 241.835 153.957 241.527C152.604 241.412 151.748 241.22 150.931 241.143C150.114 241.067 149.322 240.964 148.122 240.721C148.122 240.721 148.046 240.862 148.122 240.951C144.777 240.654 141.471 240.02 138.254 239.057C137.462 238.929 136.798 239.147 138.254 239.454C134.079 238.699 131.525 236.753 129.214 236.267C131.04 237.163 127.159 235.973 129.393 236.958C125.218 235.589 126.138 234.322 123.01 232.914C122.78 232.914 122.537 232.991 123.163 233.273C119.933 231.289 112.362 229.433 112.426 228.153L110.843 228.064C109.854 227.138 108.708 226.397 107.46 225.875C105.736 225.44 107.37 226.323 106.694 226.272C106.17 225.542 101.587 224.147 99.7739 222.842C99.7739 222.432 100.68 222.983 101.778 223.635C102.838 224.4 104.063 224.905 105.353 225.107C105.468 224.979 105.2 224.826 104.791 224.659C109.56 226.607 114.215 228.825 118.733 231.302C122.827 233.528 127.139 235.325 131.602 236.664C132.95 237.481 134.529 237.832 136.096 237.662C134.5 237.048 130.095 235.103 129.712 235.845C128.857 235.346 128.002 234.846 127.159 234.309C126.099 233.964 126.457 233.106 126.074 232.786C127.951 233.618 130.415 233.643 127.976 232.313C133.083 234.143 125.653 233.528 130.223 234.962L131.091 234.603C130.121 234.603 133.938 236.28 135.483 236.549L134.909 236.229C141.647 238.659 148.749 239.918 155.91 239.953C159.721 239.986 163.526 239.617 167.26 238.852C170.85 238.103 174.332 236.908 177.627 235.295C178.596 234.908 179.531 234.441 180.423 233.9C181.431 233.273 182.427 232.428 183.449 231.673C184.47 230.918 185.313 229.919 186.117 229.113C186.921 228.307 187.394 227.603 188.083 226.835C189.002 225.555 186.717 228.55 188.479 226.17C188.74 225.727 189.025 225.3 189.334 224.89C189.577 224.506 189.819 224.122 190.075 223.738C190.33 223.354 190.151 223.584 189.296 225.018C188.739 226.108 188.09 227.149 187.355 228.128C186.189 229.816 184.845 231.373 183.347 232.773Z" fill="#EFA142"/>
<path d="M271.707 163.484C269.996 163.139 266.6 161.577 267.149 160.809C266.651 161.577 266.651 161.577 264.111 160.95C264.455 160.451 262.374 159.504 261.072 158.852C262.607 160.245 264.325 161.42 266.179 162.345C269.447 162.601 273.839 167.247 276.839 167.388C275.269 166.134 274.031 164.368 271.707 163.484Z" fill="white"/>
<path d="M261.889 153.604L261.327 153.706L266.127 155.689C265.068 155.434 261.825 154.026 261.889 153.604Z" fill="white"/>
<path d="M247.22 145.541C247.973 145.286 246.096 143.417 246.531 142.982C245.777 144.108 243.109 140.704 241.424 139.283L240.058 139.424C241.081 140.896 242.336 142.193 243.773 143.263C245.535 144.697 247.603 146.22 249.582 147.576C248.752 146.924 247.986 146.232 247.22 145.541Z" fill="#EFA142"/>
<path d="M244.309 142.354L242.751 141.906C243.849 142.598 246.134 144.287 244.309 142.354Z" fill="white"/>
<path d="M244.654 147.204C247.68 149.502 243.071 145.505 246.288 147.574C245.126 146.974 243.939 146.093 244.654 147.204Z" fill="white"/>
<path d="M234.376 134.906C235.27 135.892 236.291 136.775 237.236 137.709C238.181 138.643 239.215 139.475 240.275 140.268C239.547 139.437 238.896 138.541 238.219 137.709C237.543 137.3 236.943 136.813 236.279 136.352C235.615 135.892 234.989 135.418 234.376 134.906Z" fill="#EFA142"/>
<path d="M235.742 133.128C236.368 133.908 237.159 135.342 235.934 134.484C235.39 133.391 234.674 132.393 233.815 131.528C233.444 131.118 233.074 130.709 232.729 130.248C232.387 129.74 232.112 129.189 231.912 128.61C232.474 129.224 232.985 129.889 233.585 130.44C233.802 130.069 232.908 129.16 232.129 128.2C231.35 127.24 230.75 126.255 231.401 125.948C230.125 124.796 230.125 125.474 230.125 126.05C230.125 126.626 230.125 127.112 228.746 125.334C230.916 128.904 232.474 131.553 234.529 134.433C234.121 133.46 233.776 133.153 233.125 131.873C235.023 134.076 237.108 136.11 239.355 137.952C238.972 136.263 236.853 135.38 235.742 133.128Z" fill="#EFA142"/>
<path d="M229.295 122.811C228.248 120.418 227.138 116.63 226.014 116.156C225.976 116.743 226.01 117.332 226.116 117.909C226.216 118.285 226.38 118.64 226.601 118.959C226.972 119.509 227.431 119.816 227.878 120.328C228.018 121.122 228.951 123.592 228.018 122.888C228.018 122.401 229.423 124.053 229.295 122.811Z" fill="#EFA142"/>
<path d="M226.55 113.073L225.376 111.371L225.695 112.574L225.031 112.817C225.362 113.057 225.655 113.346 225.899 113.675C226.497 114.417 226.901 115.296 227.074 116.234C227.316 114.763 226.512 114.468 226.55 113.073Z" fill="#EFA142"/>
<path d="M221.826 113.111C221.947 112.262 221.947 111.4 221.826 110.552C221.699 109.745 221.597 108.914 221.443 107.787C221.443 108.568 221.507 109.426 221.546 110.347L221.878 112.906C221.956 114.065 222.264 115.197 222.784 116.234L222.567 116.029C222.567 116.029 222.835 116.733 223.256 117.642C223.714 118.662 224.283 119.628 224.954 120.521C224.508 119.748 224.169 118.917 223.946 118.051C223.729 117.117 223.512 116.183 223.308 115.376C223.167 114.724 222.979 114.082 222.746 113.457C222.49 112.958 222.222 112.817 221.826 113.111Z" fill="#EFA142"/>
<path d="M225.899 105.086C225.791 105.742 225.727 106.405 225.708 107.07L225.606 109.079L225.861 108.094C225.816 107.091 225.829 106.087 225.899 105.086Z" fill="#EFA142"/>
<path d="M223.09 110.09C223.167 106.648 222.375 112.023 222.35 108.811C222.269 109.512 222.312 110.223 222.478 110.909C222.549 111.915 222.813 112.897 223.257 113.802C223.333 112.842 222.337 110.449 223.09 110.09Z" fill="#EFA142"/>
<path d="M226.154 102.502C226.027 101.388 226.014 100.262 225.95 99.123C225.975 100.262 225.975 101.388 226.154 102.502Z" fill="#EFA142"/>
<path d="M228.108 94.5542L227.839 93.799C229.116 90.8556 230.048 86.581 231.95 84.8405C231.21 85.1091 231.465 83.1382 230.137 85.6596C230.227 86.1716 229.818 87.1057 230.227 87.093C229.691 88.1807 229.397 87.7967 228.95 88.488C228.701 89.6852 228.39 90.8683 228.018 92.0328C227.621 93.0771 227.396 94.1795 227.354 95.2964C227.395 94.7554 227.556 94.2307 227.827 93.7606C227.815 94.972 227.475 96.1577 226.844 97.1907C226.422 97.9074 226.141 98.4703 226.729 99.3024C226.681 98.943 226.703 98.5781 226.792 98.2271C226.927 97.7923 227.084 97.365 227.265 96.9475C227.642 96.1871 227.925 95.3834 228.108 94.5542Z" fill="#EFA142"/>
<path d="M224.916 93.9655L224.022 96.8067C223.626 95.7572 224.839 93.2488 224.495 92.6602C224.035 92.6602 223.116 95.5779 223.141 94.4391C224.495 95.1685 222.209 98.4575 224.227 97.3057C223.933 99.2 223.703 99.4685 223.384 99.7501C223.065 100.032 222.72 100.326 222.528 102.387L223.243 103.667C223.218 102.02 223.424 100.379 223.856 98.7903C224.099 97.4337 224.584 96.205 224.916 93.9655Z" fill="#EFA142"/>
<path d="M229.167 83.4707L230.176 82.3828L229.269 82.7922C230.461 80.3361 232.098 78.1229 234.095 76.2654C235.637 74.9204 236.967 73.3499 238.04 71.6069C239.994 67.1276 243.594 64.1838 246.441 60.2166C247.539 58.0537 244.819 61.8674 244.449 61.9059C244.13 60.7925 246.249 60.3443 246.339 59.0136C246.186 58.6935 245.279 59.5765 244.181 60.7156C243.083 61.8547 241.896 63.2751 241.092 64.0176C240.083 65.5661 240.275 65.6684 240.275 66.3597C239.674 66.5132 238.487 67.9594 237.9 68.1386C237.147 69.5833 236.249 70.9471 235.219 72.2082C234.174 73.4491 233.342 74.8545 232.755 76.3677C231.644 77.1099 234.108 73.8082 233.38 74.8958L232.359 76.7005L232.55 76.5597C231.899 78.2172 231.105 79.8146 230.176 81.3333C229.193 82.9587 228.274 84.4945 227.623 85.2496C228.427 83.9697 229.308 83.3299 228.772 84.9423C228.363 85.2624 227.929 85.5824 227.495 85.9279L227.125 89.7674C227.378 88.4126 227.866 87.113 228.567 85.9279C229.244 84.8272 229.64 83.9952 229.167 83.4707Z" fill="#EFA142"/>
<path d="M226.321 86.6823C225.299 88.6789 225.605 88.6532 225.899 88.6789C226.193 88.7043 226.397 88.6789 225.491 90.9953C225.963 89.3572 226.652 87.8087 227.24 86.209L226.321 86.6823Z" fill="#EFA142"/>
<path d="M237.925 69.2894L239.483 67.7793C238.091 68.2271 237.211 71.6954 237.925 69.2894Z" fill="white"/>
<path d="M242.496 62.9173L242.445 64.2738L243.288 62.418L242.496 62.9173Z" fill="white"/>
<path d="M247.552 57.8233C248.254 56.3642 246.837 57.6441 245.777 59.1029C246.824 57.8618 247.603 57.3882 247.552 57.8233Z" fill="#EFA142"/>
<path d="M255.736 49.3375C253.591 52.2301 257.74 46.8548 256.655 49.3375C256.719 48.7361 257.51 47.0595 255.736 49.3375Z" fill="white"/>
<path d="M263.421 40.4688C262.809 41.646 262.451 42.043 262.247 42.1196C262.589 41.5359 262.982 40.9834 263.421 40.4688Z" fill="#EFA142"/>
<path d="M236.189 75.8301C235.998 76.1877 235.781 76.5708 235.563 76.9027C235.742 76.5453 235.946 76.2004 236.189 75.8301Z" fill="#EFA142"/>
<path d="M236.598 75.1523C236.445 75.3822 236.305 75.612 236.151 75.8292C236.317 75.5354 236.458 75.344 236.598 75.1523Z" fill="#EFA142"/>
<path d="M253.22 147.857C253.833 148.177 254.28 148.458 254.65 148.687L253.233 147.87L253.22 147.857Z" fill="#EFA142"/>
<path d="M254.063 150.187C251.191 149.201 252.276 147.141 248.139 144.824C249.773 145.835 251.484 146.859 253.246 147.87C254.932 150.276 251.127 147.205 254.063 150.187Z" fill="#EFA142"/>
<path d="M225.837 121.931L225.733 121.776C225.592 121.506 225.682 121.609 225.837 121.931Z" fill="#EFA142"/>
<path d="M282.636 238.557V238.723C281.793 238.965 280.925 239.144 280.082 239.336C280.938 239.093 281.793 238.85 282.636 238.557Z" fill="white"/>
<path d="M283.083 238.723C284.538 238.365 285.968 237.891 287.424 237.443C279.137 240.711 270.427 242.771 261.557 243.561L262.4 243.318C262.196 243.215 267.66 242.652 272.997 241.552C276.442 240.94 279.82 239.993 283.083 238.723Z" fill="white"/>
<path d="M284.193 238.071C286.325 236.471 288.304 236.791 290.895 234.846C289.467 236.117 287.795 237.079 285.981 237.674C285.381 237.789 284.806 237.956 284.193 238.071Z" fill="white"/>
<path d="M293.372 229.112L293.858 228.754L293.424 229.214L293.372 229.112Z" fill="#EFA142"/>
<path d="M293.425 229.215L293.555 229.472C293.13 229.614 293.182 229.472 293.425 229.215Z" fill="#EFA142"/>
<path d="M293.858 228.755C294.216 228.385 294.549 227.992 294.852 227.577L294.393 227.884L295.364 226.911C295.584 226.636 295.852 226.402 296.156 226.22C295.069 227.18 295.11 227.295 295.338 227.667C296.003 227.206 296.616 226.643 297.191 226.131C297.344 226.656 296.934 227.001 296.295 227.411C295.451 227.794 294.635 228.244 293.858 228.755Z" fill="#EFA142"/>
<path d="M301.926 221.127C301.836 221.741 300.229 223.52 301.35 222.586C301.148 222.991 300.891 223.366 300.584 223.699C301.466 222.317 300.024 223.098 301.926 221.127Z" fill="#EFA142"/>
<path d="M300.587 223.699C300.466 223.901 300.321 224.086 300.151 224.248C300.304 224.07 300.446 223.878 300.587 223.699Z" fill="#EFA142"/>
<path d="M304.877 217.259L305.207 216.416C305.106 216.659 305.042 216.888 304.964 217.118L304.877 217.259Z" fill="#EFA142"/>
<path d="M231.082 243.855C235.099 244.365 239.138 244.673 243.185 244.777C243.058 244.597 245.267 244.777 245.56 244.572C242.879 244.572 247.922 244.572 253.093 244.29C258.263 244.009 263.536 243.164 261.391 243.343L260.115 243.65L261.391 243.113C263.999 243.027 266.596 242.723 269.154 242.204C265.667 242.878 262.147 243.365 258.608 243.663C253.22 244.213 247.845 244.328 248.267 244.354C247.271 244.239 254.752 244.021 262.476 242.882C266.307 242.332 270.277 241.603 273.264 240.899C275.029 240.521 276.766 240.021 278.461 239.401L278.895 239.632C281.912 238.351 284.828 236.841 287.615 235.114L288.483 235.229C287.611 235.57 286.759 235.959 285.929 236.394C285.125 236.868 284.294 237.295 283.44 237.674C286.067 236.759 288.627 235.66 291.101 234.384C290.693 233.873 288.547 235.447 291.919 233.105C292.505 232.938 292.289 233.335 292.312 233.553C292.338 233.77 292.644 233.809 294.176 232.759C295.39 232.163 296.445 231.286 297.255 230.199C297.917 229.224 298.697 228.334 299.579 227.55L297.471 229.022C297.98 228.549 298.746 227.858 299.475 227.217C300.079 226.568 300.767 226 301.518 225.528C300.917 226.053 300.061 227.179 299.246 228.088C298.428 228.996 297.853 229.867 298.11 230.11C298.683 229.496 299.755 228.715 300.738 227.845C301.582 227.13 302.371 226.356 303.102 225.528C303.102 225.861 302.987 226.219 302.897 226.552C303.501 226.157 304.01 225.627 304.377 225.003C304.582 224.722 304.788 224.427 305.042 224.12C305.302 223.745 305.606 223.401 305.947 223.097C306.791 221.343 304.672 223.608 305.08 222.597C305.672 222.075 306.175 221.461 306.574 220.78C307.167 219.96 307.6 219.035 307.852 218.054C307.187 218.246 306.739 219.193 306.216 220.345C305.97 220.951 305.637 221.52 305.233 222.034C304.854 222.549 304.377 222.985 303.828 223.314C304.504 222.405 305.247 221.548 305.872 220.601C305.872 219.321 305.322 220.601 304.481 221.791C303.637 222.981 302.706 224.351 302.718 223.608C302.805 223.292 302.929 222.987 303.088 222.7C303.23 222.42 303.391 222.15 303.574 221.894C303.964 221.386 304.392 220.907 304.851 220.46C305.262 219.983 305.62 219.464 305.924 218.912C306.065 218.641 306.172 218.353 306.242 218.054C306.305 217.733 306.305 217.403 306.242 217.081C305.898 217.747 304.964 219.052 304.351 220.166C303.738 221.279 302.897 222.009 302.897 221.638C303.475 221.096 303.894 220.405 304.108 219.641C304.314 218.848 304.556 218.003 304.926 216.954C305.4 216.173 305.961 215.418 306.406 214.611C306.331 213.332 306.14 214.291 305.603 215.034C306.701 212.774 307.271 210.291 307.262 207.777C307.262 204.808 307.071 201.841 306.69 198.895C305.603 195.632 306.036 198.627 305.143 197.283C305.348 195.325 303.574 192.676 302.654 191.05C302.464 190.513 301.238 190.026 301.212 190.654C302.094 191.933 302.961 193.213 303.764 194.608C303.256 194.608 302.935 195.44 303.548 196.912C304.071 196.131 304.481 197.731 304.71 199.471C304.941 201.212 305.106 203.119 305.987 203.183H305.207C305.435 204.097 305.606 205.025 305.718 205.96L305.898 207.368V208.776L306.013 208.622C305.898 208.622 306.013 209.799 305.794 211.386C305.637 213.11 305.16 214.79 304.392 216.339C304.392 215.853 305.094 214.458 305.221 213.421C305.348 212.385 305.438 211.873 304.672 213.216C304.799 212.077 305.143 210.567 305.348 208.776C305.348 208.327 305.438 207.867 305.487 207.393C305.539 206.92 305.487 206.421 305.487 205.909C305.467 204.879 305.337 203.854 305.106 202.85L304.698 203.707C304.059 201.608 303.548 199.177 302.692 196.669C301.929 194.138 300.813 191.73 299.373 189.514L300.804 190.423C300.151 188.747 299.385 186.379 297.763 185.406C299.157 187.16 298.096 186.494 297.587 186.379C295.506 184.242 292.991 180.748 289.62 178.342C289.62 178.342 289.886 178.342 289.823 178.137C288.623 177.318 287.359 176.55 286.095 175.808C284.998 174.885 284.088 173.76 283.414 172.493C282.712 172.135 281.065 171.072 281.423 171.879C281.702 172.128 282.011 172.343 282.342 172.518C279.942 172.032 281.167 171.418 278.423 170.381C280.708 170.906 278.422 169.101 279.035 168.577C275.933 167.118 278.052 169.588 277.503 169.677C274.197 167.194 274.043 166.363 270.417 164.187C269.984 164.494 272.881 165.928 272.971 166.567C272.215 165.972 271.346 165.537 270.417 165.288L272.486 166.875C268.821 164.168 264.864 161.884 260.689 160.066L260.906 160.476L258.187 158.953L259.604 158.697C258.021 158.095 256.834 156.483 255.697 156.662L256.208 157.033L254.216 156.214L256.553 156.534C254.433 154.87 250.169 154.55 246.505 151.824C246.505 151.031 248.101 152.093 249.99 153.104C251.88 154.115 253.948 155.152 254.586 154.601C253.402 153.474 252.016 152.579 250.501 151.965C250.424 152.413 251.305 153.027 252.212 153.577C248.382 152.297 244.36 147.767 241.577 147.242C242.266 147.985 242.956 148.753 243.658 149.482C240.734 147.485 240.083 144.721 238.551 144.657L241.641 145.233C238.423 143.621 235.181 140.37 232.538 138.194C232.168 138.463 233.01 139.372 233.904 140.191C234.798 141.01 235.794 141.675 235.64 141.662L234.032 140.984C233.243 140.071 232.562 139.071 232.002 138.002C231.301 136.676 230.521 135.394 229.665 134.163L229.155 134.47C228.531 133.07 227.695 131.775 226.678 130.631C225.835 129.351 225.401 128.634 226.576 129.197C226.767 129.76 226.946 130.362 227.176 130.912L227.687 130.4C226.971 129.389 226.295 128.327 225.618 127.277C224.942 126.228 224.342 125.102 223.805 123.937C224.559 124.411 223.078 121.083 224.086 121.749C223.575 120.968 223.116 120.136 222.644 119.317C222.925 118.575 223.588 119.701 224.278 120.981C224.967 122.26 225.861 123.63 226.257 123.604C226.64 123.336 226.116 122.209 225.835 121.672C226.248 122.252 226.562 122.896 226.767 123.579C226.982 124.163 227.136 124.768 227.227 125.383C227.4 126.734 227.833 128.038 228.503 129.223L229.806 130.566L229.027 130.989C229.694 131.802 230.581 132.406 231.581 132.729C232.5 135.993 235.806 137.618 238.972 140.92C237.402 139.794 237.696 140.357 238.321 141.202C238.947 142.046 239.917 143.096 239.598 142.955C240.868 143.921 242.218 144.777 243.632 145.515C245.203 146.423 246.684 147.332 247.092 148.318C247.845 149.392 244.615 147.319 246.888 149.213C248.535 150.211 249.876 150.493 249.11 149.495C252.748 151.658 256.936 154.358 260.932 156.534H259.655C261.59 158.019 263.915 158.908 266.345 159.093C266.575 159.49 266.856 159.439 266.345 159.554C269.026 162.114 271.005 160.629 276.022 163.726C276.15 162.818 273.89 161.436 272.052 160.911L272.933 160.296C268.569 157.794 264.058 155.559 259.425 153.603L261.43 153.923C258.966 151.018 258.557 153.757 256.412 150.762C254.089 149.776 257.689 152.131 255.876 151.517C254.51 150.352 257.153 150.237 254.599 148.727C264.175 154.115 275.601 159.477 285.483 165.889C285.764 165.889 285.291 165.467 284.806 165.07C286.823 165.646 294.445 171.188 300.061 178.252C302.559 181.463 304.767 184.889 306.664 188.491C308.207 191.421 309.216 193.507 309.803 193.61C309.69 194.301 308.745 192.573 309.574 194.979C309.803 195.146 310.199 195.709 310.314 194.979C310.971 198.602 311.419 202.26 311.656 205.934C311.864 209.973 311.026 213.998 309.23 217.619C309.612 217.619 309.089 219.257 309.23 219.385C308.713 219.987 308.242 220.629 307.826 221.305C307.404 222.047 306.906 222.802 306.395 223.545C305.554 224.932 304.51 226.184 303.293 227.256C303.574 227.154 303.828 227.013 304.097 226.885C303.215 227.883 302.221 228.766 301.264 229.675C300.304 230.583 299.272 231.402 298.159 232.119C298.032 232.337 298.94 231.774 299.437 231.39C298.159 232.554 297.599 232.426 297.304 232.311C296.5 233.178 295.647 233.999 294.751 234.768C289.733 237.123 284.568 239.153 279.291 240.848C273.679 242.546 267.892 243.594 262.042 243.97C260.072 244.506 258.045 244.806 256.004 244.866H257.434C254.51 245.224 257.255 244.738 254.752 244.969C253.067 245.161 254.267 245.378 256.578 245.135C258.033 245.135 257.153 245.301 256.118 245.391C247.746 245.523 239.376 245.01 231.082 243.855Z" fill="#EFA142"/>
<path d="M275.371 10.4703C275.244 11.4685 275.652 6.47726 275.371 8.89612C274.898 13.6511 273.821 18.326 272.167 22.8076C270.458 27.6526 268.177 32.2755 265.375 36.5784L262.208 40.8273C262.217 40.8475 262.229 40.8657 262.244 40.8813C262.26 40.8967 262.278 40.9088 262.299 40.9172C262.318 40.9256 262.34 40.9296 262.362 40.9296C262.384 40.9296 262.405 40.9253 262.425 40.9169C260.865 43.4698 259.16 45.931 257.319 48.2885C256.987 48.9156 256.974 49.5684 257.689 48.4038C255.774 51.7058 253.297 53.2413 252.263 55.1229C253.54 53.843 251.484 56.8249 252.952 55.1995C250.667 58.4119 249.697 57.1831 247.679 59.538C247.679 59.7557 247.679 59.9861 248.05 59.538C246.534 61.0983 245.186 62.8142 244.028 64.6573C242.752 66.4747 241.756 67.9975 241.143 67.8055L240.721 69.1366C239.682 69.8131 238.781 70.6816 238.066 71.6962C237.351 73.1553 238.475 71.8881 238.321 72.4898C237.53 72.7968 235.474 76.5724 233.904 77.9546C233.151 77.6346 236.56 75.3948 236.994 73.4239C236.891 73.2961 236.7 73.5135 236.47 73.8463C239.068 69.9797 241.999 66.3484 245.228 62.9935C248.138 59.9627 250.81 56.7107 253.221 53.2671C254.317 52.3575 255.066 51.0961 255.34 49.6965C254.293 50.8226 251.306 54.0222 251.931 54.6493L249.901 56.3386C249.327 57.1577 248.624 56.556 248.216 56.7992C249.492 55.4042 250.093 53.2032 248.216 54.9564C251.203 51.1169 248.739 57.4008 251.254 53.843L251.14 52.947C250.91 53.8045 253.438 51.0145 254.127 49.7604L253.68 50.157C257.773 45.1218 261.522 39.8157 264.902 34.2747C268.456 28.4859 271.249 22.2616 273.214 15.7559C274.58 12.8379 274.988 6.51566 275.141 3.58489C275.141 2.17711 275.141 5.59422 275.077 2.89382C275.034 2.4213 275.034 1.94573 275.077 1.47322C275.077 1.06368 275.077 0.654146 275.077 0.193414C275.077 -0.267317 275.077 0.0526348 275.167 1.614C275.497 4.55415 275.566 7.51796 275.371 10.4703Z" fill="#EFA142"/>
</g>
</svg>
